<svg width="38" height="48" viewBox="0 0 38 48" fill="none" xmlns="http://www.w3.org/2000/svg">
<g clip-path="url(#clip0_20_41063)">
<path d="M2.76573 26.7446C3.04786 20.9556 6.80217 18.1818 11.3808 18.6039L12.4444 18.7676C13.7814 18.9735 15.0187 19.6365 15.73 20.7881C16.8199 22.5523 18.2172 25.5317 18.0078 28.9757C18.0078 32.7747 14.132 33.9204 12.5857 34.1616C4.63334 36.5134 2.60508 30.0411 2.76573 26.7446Z" fill="#421769"/>
<path fill-rule="evenodd" clip-rule="evenodd" d="M5.38239 20.2547C6.95752 18.8647 9.07535 18.2703 11.3918 18.4839L11.3955 18.4841L12.4627 18.6485C13.8253 18.8583 15.0982 19.5359 15.8326 20.7247C16.928 22.498 18.3387 25.5013 18.1283 28.9795C18.127 30.9261 17.1303 32.1951 15.9444 33.0026C14.766 33.805 13.3965 34.1563 12.6122 34.2796C10.612 34.8699 8.97425 34.909 7.64453 34.5754C6.31215 34.2412 5.29696 33.5349 4.5417 32.6495C3.03512 30.8834 2.56403 28.4078 2.64537 26.7388C2.78768 23.8187 3.80696 21.6447 5.38239 20.2547ZM5.54175 20.4356C4.02483 21.774 3.02589 23.8814 2.88608 26.7505C2.80676 28.3779 3.26948 30.7867 4.72497 32.4929C5.45073 33.3437 6.42363 34.0205 7.70312 34.3415C8.98359 34.6626 10.579 34.6293 12.5515 34.046L12.5592 34.0437L12.5672 34.0425C13.3305 33.9235 14.6667 33.5809 15.8088 32.8032C16.9466 32.0283 17.8873 30.8259 17.8873 28.9757V28.9721L17.8875 28.9685C18.0948 25.5599 16.7114 22.6061 15.6276 20.8515C14.9391 19.737 13.7374 19.0888 12.4261 18.8869L11.3661 18.7236C9.10541 18.5161 7.05814 19.0975 5.54175 20.4356Z" fill="#421769"/>
<path d="M10.0764 14.6231H10.3404H11.1006V18.7236H10.3404H10.0764C8.94513 18.7236 8.02805 17.8057 8.02805 16.6734C8.02805 15.541 8.94513 14.6231 10.0764 14.6231Z" fill="#FDBF87"/>
<path fill-rule="evenodd" clip-rule="evenodd" d="M11.5825 14.1407H10.0764C8.67894 14.1407 7.54609 15.2746 7.54609 16.6734C7.54609 18.0721 8.67894 19.206 10.0764 19.206H11.5825V14.1407ZM10.6186 15.1055V18.2412H10.0764C9.2113 18.2412 8.51001 17.5393 8.51001 16.6734C8.51001 15.8074 9.2113 15.1055 10.0764 15.1055H10.6186Z" fill="#421769"/>
<path d="M27.3065 14.6231H27.0425H26.2823V18.7236H27.0425H27.3065C28.4378 18.7236 29.3549 17.8057 29.3549 16.6734C29.3549 15.541 28.4378 14.6231 27.3065 14.6231Z" fill="#FDBF87"/>
<path fill-rule="evenodd" clip-rule="evenodd" d="M25.8004 14.1407H27.3065C28.704 14.1407 29.8368 15.2746 29.8368 16.6734C29.8368 18.0721 28.704 19.206 27.3065 19.206H25.8004V14.1407ZM26.7643 15.1055V18.2412H27.3065C28.1716 18.2412 28.8729 17.5393 28.8729 16.6734C28.8729 15.8074 28.1716 15.1055 27.3065 15.1055H26.7643Z" fill="#421769"/>
<path d="M1.21875 47.397C1.3145 38.588 7.27965 35.7855 9.91266 34.9338C10.8954 34.6158 12.2928 33.5953 12.8874 33.1106L17.9691 47.397H1.21875Z" fill="#421769"/>
<path fill-rule="evenodd" clip-rule="evenodd" d="M13.1125 32.305L12.5832 32.7365C12.2976 32.9691 11.8135 33.335 11.283 33.6802C10.7445 34.0304 10.193 34.336 9.76443 34.4747C8.40672 34.9138 6.17482 35.86 4.26674 37.847C2.34793 39.8453 0.785983 42.8665 0.736799 47.3917L0.731499 47.8794H18.6523L13.1125 32.305ZM12.6563 33.899L17.2859 46.9146H1.71228C1.8606 42.9057 3.28289 40.264 4.96169 38.5157C6.71837 36.6862 8.78555 35.8052 10.0608 35.3928C10.615 35.2134 11.2537 34.8499 11.8082 34.4892C12.114 34.2903 12.4049 34.0852 12.6563 33.899Z" fill="#421769"/>
<path d="M9.29379 38.9604L11.352 34.8693L18.4511 34.3719V47.1869L9.29379 42.7555L12.9085 40.7569L9.29379 38.9604Z" fill="#FFD433"/>
<path d="M18.6921 25.206H12.2058C12.8745 27.4372 13.6917 32.3196 11.4626 34.2288C11.4626 34.2288 14.4343 39.5571 16.2414 42.9027C16.8487 44.0268 17.2151 46.4332 17.7281 47.397C18.4511 47.397 18.6921 47.397 18.6921 47.397V42.9027V25.206Z" fill="#FDBF87"/>
<path fill-rule="evenodd" clip-rule="evenodd" d="M12.788 25.206C12.788 25.4666 12.8061 25.7585 12.8355 26.0773C12.871 26.4585 12.9233 26.8754 12.9808 27.3218C12.9873 27.3718 12.9938 27.4222 13.0003 27.473C13.0989 28.2361 13.2062 29.0665 13.2517 29.8837C13.3397 31.467 13.2103 33.1785 12.1589 34.3144C12.2281 34.4699 12.3227 34.6805 12.439 34.9347C12.7019 35.5097 13.0759 36.3077 13.5196 37.1984C14.4112 38.9881 15.5698 41.1231 16.6676 42.5865C17.2886 43.4141 17.5714 44.6517 17.7083 45.6104C17.7785 46.1024 17.8134 46.5465 17.8309 46.8675C17.8319 46.8836 17.8326 46.8993 17.8334 46.9146H18.6921V47.8794H16.8847V47.397V47.3961V47.3908C16.8846 47.3859 16.8846 47.3782 16.8845 47.3677C16.8842 47.3468 16.8837 47.3151 16.8827 47.2737C16.8807 47.1911 16.8766 47.0703 16.8684 46.9201C16.852 46.6195 16.8193 46.2043 16.754 45.7469C16.6197 44.8065 16.3603 43.7836 15.8968 43.1657C14.743 41.6278 13.5521 39.426 12.6569 37.629C12.2074 36.7265 11.8287 35.9186 11.5624 35.3363C11.4293 35.0451 11.3241 34.81 11.2521 34.6474C11.216 34.5661 11.1883 34.5031 11.1695 34.46C11.1602 34.4385 11.153 34.422 11.1481 34.4109L11.1407 34.3937C11.1407 34.3937 11.1406 34.3936 11.5831 34.2023L11.1406 34.3936L11.0009 34.0699L11.2667 33.8383C12.1582 33.0617 12.3638 31.6396 12.2741 29.9262C12.2324 29.1283 12.1304 28.3132 12.0327 27.5325C12.0281 27.4958 12.0235 27.4592 12.0189 27.4228C11.9648 26.9896 11.9122 26.5633 11.8754 26.1622C11.844 25.8239 11.8241 25.5017 11.8241 25.206H12.788Z" fill="#421769"/>
<path d="M36.0449 47.397C35.9491 38.588 29.9839 35.7855 27.351 34.9338C26.3681 34.6158 24.9708 33.5953 24.3761 33.1106L19.2945 47.397H36.0449Z" fill="#421769"/>
<path fill-rule="evenodd" clip-rule="evenodd" d="M24.1511 32.305L24.6804 32.7365C24.966 32.9691 25.4501 33.335 25.9806 33.6802C26.5191 34.0304 27.0706 34.336 27.4992 34.4747C28.8569 34.9138 31.0887 35.86 32.9969 37.847C34.9156 39.8453 36.4777 42.8665 36.5268 47.3917L36.5321 47.8794H18.6113L24.1511 32.305ZM24.6073 33.899L19.9777 46.9146H35.5513C35.403 42.9057 33.9807 40.264 32.3019 38.5157C30.5452 36.6862 28.4781 35.8052 27.2028 35.3928C26.6485 35.2134 26.0099 34.8499 25.4554 34.4892C25.1496 34.2903 24.8588 34.0852 24.6073 33.899Z" fill="#421769"/>
<path d="M27.9698 38.9604L25.9116 34.8693L18.8125 34.3719V47.1869L27.9698 42.7555L24.3551 40.7569L27.9698 38.9604Z" fill="#FFD433"/>
<path d="M18.5716 25.206H25.0578C24.389 27.4372 23.5719 32.3196 25.801 34.2288C25.801 34.2288 22.8293 39.5571 21.0222 42.9027C20.4149 44.0268 20.0485 46.4332 19.5355 47.397C18.8125 47.397 18.5716 47.397 18.5716 47.397V42.9027V25.206Z" fill="#FDBF87"/>
<path fill-rule="evenodd" clip-rule="evenodd" d="M24.4756 25.206C24.4756 25.4666 24.4575 25.7585 24.4281 26.0773C24.3926 26.4585 24.3403 26.8754 24.2828 27.3218C24.2763 27.3718 24.2698 27.4222 24.2633 27.473C24.1646 28.2361 24.0574 29.0665 24.0119 29.8837C23.9239 31.467 24.0532 33.1785 25.1046 34.3144C25.0354 34.4699 24.9409 34.6805 24.8247 34.9347C24.5617 35.5097 24.1877 36.3077 23.744 37.1984C22.8525 38.9881 21.6938 41.1231 20.596 42.5865C19.975 43.4141 19.6922 44.6517 19.5554 45.6104C19.4851 46.1024 19.4502 46.5465 19.4326 46.8675C19.4317 46.8836 19.4309 46.8993 19.4302 46.9146H18.5716V47.8794H20.3789V47.397V47.3961V47.3908C20.3789 47.3859 20.379 47.3782 20.3792 47.3677C20.3794 47.3468 20.3799 47.3151 20.3808 47.2737C20.3829 47.1911 20.387 47.0703 20.3952 46.9201C20.4116 46.6195 20.4443 46.2043 20.5097 45.7469C20.6439 44.8065 20.9033 43.7836 21.3668 43.1657C22.5206 41.6278 23.7114 39.426 24.6067 37.629C25.0562 36.7265 25.4348 35.9186 25.7011 35.3363C25.8344 35.0451 25.9396 34.81 26.0115 34.6474C26.0475 34.5661 26.0752 34.5031 26.094 34.46C26.1034 34.4385 26.1107 34.422 26.1155 34.4109L26.1229 34.3937C26.1229 34.3937 26.1229 34.3936 25.6805 34.2023L26.1229 34.3936L26.2626 34.0699L25.9969 33.8383C25.1054 33.0617 24.8998 31.6396 24.9895 29.9262C25.0312 29.1283 25.1332 28.3132 25.2309 27.5325C25.2355 27.4958 25.2401 27.4592 25.2447 27.4228C25.2988 26.9896 25.3513 26.5633 25.3882 26.1622C25.4196 25.8239 25.4395 25.5017 25.4395 25.206H24.4756Z" fill="#421769"/>
<path d="M26.8246 20.6349V15.6784C26.8246 11.1491 23.1562 7.47739 18.6312 7.47739C14.1062 7.47739 10.4379 11.1491 10.4379 15.6784V20.6349C10.4379 25.1643 14.1062 28.8359 18.6312 28.8359C23.1562 28.8359 26.8246 25.1643 26.8246 20.6349Z" fill="#FDBF87"/>
<path fill-rule="evenodd" clip-rule="evenodd" d="M18.6312 7.9598C14.3724 7.9598 10.9198 11.4155 10.9198 15.6784V20.6349C10.9198 24.8979 14.3724 28.3535 18.6312 28.3535C22.8901 28.3535 26.3426 24.8979 26.3426 20.6349V15.6784C26.3426 11.4155 22.8901 7.9598 18.6312 7.9598ZM9.9559 15.6784C9.9559 10.8827 13.84 6.99498 18.6312 6.99498C23.4224 6.99498 27.3065 10.8827 27.3065 15.6784V20.6349C27.3065 25.4307 23.4224 29.3184 18.6312 29.3184C13.8399 29.3184 9.9559 25.4307 9.9559 20.6349V15.6784Z" fill="#421769"/>
<path fill-rule="evenodd" clip-rule="evenodd" d="M17.1824 23.5056C17.3155 23.5056 17.4234 23.6137 17.4234 23.7469C17.4234 24.5462 18.0707 25.1941 18.8693 25.1941C19.3001 25.1941 19.6866 25.0058 19.9519 24.7062C20.0401 24.6065 20.1924 24.5973 20.292 24.6856C20.3917 24.774 20.4009 24.9265 20.3125 25.0262C19.9597 25.4247 19.4437 25.6765 18.8693 25.6765C17.8045 25.6765 16.9415 24.8126 16.9415 23.7469C16.9415 23.6137 17.0493 23.5056 17.1824 23.5056Z" fill="#421769"/>
<path d="M18.5888 9.5614C20.1437 13.9791 24.8207 14.7667 27.8269 14.5644C28.5409 14.5164 29.0717 13.9185 29.1053 13.2031C29.3041 8.96493 28.9368 5.27692 28.1877 4.05613C26.2269 0.860962 20.7668 -0.570556 18.6839 0.394709L18.6818 0.395625C18.5643 0.450075 18.4318 0.511481 18.4038 0.637837C18.3309 0.967089 18.5107 1.72329 18.5107 2.03553V9.08472C18.5107 9.2461 18.5352 9.4092 18.5888 9.5614Z" fill="#421769"/>
<path d="M18.431 9.5636C16.8554 13.9851 12.1161 14.7687 9.07663 14.5637C8.36195 14.5154 7.82959 13.9178 7.79562 13.2017C7.59463 8.96411 7.9662 5.27678 8.72376 4.05614C10.7077 0.859416 16.2343 -0.571939 18.3387 0.396111L18.344 0.39855C18.4599 0.451853 18.5899 0.51163 18.6182 0.635622C18.6933 0.963687 18.5107 1.72259 18.5107 2.03553V9.08208C18.5107 9.24519 18.4857 9.40997 18.431 9.5636Z" fill="#421769"/>
</g>
<defs>
<clipPath id="clip0_20_41063">
<rect width="36.9906" height="48" fill="white" transform="translate(0.0756836)"/>
</clipPath>
</defs>
</svg>
