<svg width="38" height="48" viewBox="0 0 38 48" fill="none" xmlns="http://www.w3.org/2000/svg">
<g clip-path="url(#clip0_20_41069)">
<path d="M10.5107 14.6231H10.7755H11.538V18.7236H10.7755H10.5107C9.376 18.7236 8.45612 17.8057 8.45612 16.6734C8.45612 15.541 9.376 14.6231 10.5107 14.6231Z" fill="#FDBF87"/>
<path fill-rule="evenodd" clip-rule="evenodd" d="M12.0214 14.1407H10.5107C9.10897 14.1407 7.97266 15.2746 7.97266 16.6734C7.97266 18.0721 9.10897 19.206 10.5107 19.206H12.0214V14.1407ZM11.0546 15.1055V18.2412H10.5107C9.64297 18.2412 8.93953 17.5393 8.93953 16.6734C8.93953 15.8075 9.64297 15.1055 10.5107 15.1055H11.0546Z" fill="#421769"/>
<path d="M27.7936 14.6231H27.5288H26.7663V18.7236H27.5288H27.7936C28.9283 18.7236 29.8482 17.8057 29.8482 16.6734C29.8482 15.541 28.9283 14.6231 27.7936 14.6231Z" fill="#FDBF87"/>
<path fill-rule="evenodd" clip-rule="evenodd" d="M26.2828 14.1407H27.7936C29.1953 14.1407 30.3316 15.2746 30.3316 16.6734C30.3316 18.0721 29.1953 19.206 27.7936 19.206H26.2828V14.1407ZM27.2497 15.1055V18.2412H27.7936C28.6613 18.2412 29.3647 17.5393 29.3647 16.6734C29.3647 15.8075 28.6613 15.1055 27.7936 15.1055H27.2497Z" fill="#421769"/>
<path d="M36.5587 47.397C36.4626 38.588 30.4792 35.7855 27.8382 34.9338C26.8523 34.6158 25.4507 33.5953 24.8542 33.1106L19.757 47.397H36.5587Z" fill="#421769"/>
<path fill-rule="evenodd" clip-rule="evenodd" d="M24.6285 32.305L25.1595 32.7365C25.4459 32.9691 25.9315 33.335 26.4636 33.6802C27.0038 34.0304 27.5569 34.336 27.9868 34.4747C29.3487 34.9138 31.5873 35.86 33.5014 37.847C35.426 39.8453 36.9928 42.8665 37.0421 47.3917L37.0474 47.8794H19.0718L24.6285 32.305ZM25.0861 33.899L20.4423 46.9146H36.0636C35.9148 42.9057 34.4882 40.264 32.8043 38.5157C31.0422 36.6862 28.9687 35.8052 27.6895 35.3928C27.1336 35.2134 26.493 34.8499 25.9368 34.4892C25.6301 34.2903 25.3383 34.0852 25.0861 33.899Z" fill="#421769"/>
<path d="M29.9092 40.7191C28.9508 39.6566 28.1266 40.0402 26.1626 40.7192C24.6869 41.2292 26.4647 42.0458 26.1626 44.0306C26.0202 44.9653 27.6129 43.6137 28.1266 45.4518C28.6402 47.2899 30.6889 44.7635 30.0905 44.0306C28.5193 42.106 30.997 41.9251 29.9092 40.7191Z" fill="#FFD433"/>
<path fill-rule="evenodd" clip-rule="evenodd" d="M26.6835 41.0491C26.5685 41.0891 26.4478 41.1311 26.3208 41.175C26.1521 41.2333 26.0806 41.2801 26.0536 41.303C26.0548 41.3138 26.0574 41.3295 26.0629 41.3514C26.0795 41.4183 26.1123 41.5052 26.1667 41.6313C26.1859 41.6761 26.2071 41.7236 26.2294 41.774C26.4392 42.2457 26.7596 42.9658 26.6633 43.9222C26.7351 43.9205 26.825 43.9184 26.908 43.92C27.1657 43.9251 27.5189 43.9626 27.8517 44.1847C28.1919 44.4118 28.4419 44.7844 28.5922 45.3221C28.6427 45.5033 28.6994 45.5817 28.7273 45.61C28.7439 45.6267 28.7488 45.6264 28.7522 45.6262C28.7527 45.6262 28.7531 45.6262 28.7536 45.6262C28.8035 45.6282 28.9636 45.5807 29.1861 45.3618C29.3901 45.161 29.5655 44.8928 29.6552 44.6522C29.744 44.4138 29.7079 44.3302 29.7103 44.3291C29.7103 44.3291 29.7106 44.3292 29.711 44.3296C29.2835 43.8044 29.0772 43.3324 29.0689 42.8797C29.0604 42.4237 29.2565 42.0808 29.4143 41.8408C29.457 41.7759 29.4897 41.7285 29.5187 41.6864C29.554 41.6353 29.584 41.592 29.6199 41.5345C29.6738 41.4481 29.6972 41.3942 29.7066 41.3567C29.7069 41.3559 29.7071 41.3548 29.7075 41.3536C29.7141 41.3307 29.7376 41.25 29.5498 41.0418C29.3424 40.8119 29.1665 40.6871 29.0068 40.6195C28.8506 40.5533 28.6779 40.5279 28.4535 40.5469C28.0214 40.583 27.495 40.7664 26.6835 41.0491ZM26.6371 44.1402C26.6371 44.1402 26.6369 44.1393 26.6369 44.1371C26.6371 44.1391 26.6371 44.1402 26.6371 44.1402ZM26.0388 41.3184C26.0386 41.3184 26.0397 41.3165 26.0427 41.3132C26.0406 41.3168 26.0391 41.3185 26.0388 41.3184ZM29.3846 39.7313C29.7103 39.8693 29.9967 40.0951 30.2685 40.3963C30.615 40.7807 30.7491 41.1776 30.6442 41.5927C30.599 41.7717 30.5157 41.9241 30.4406 42.0444C30.4 42.1095 30.3422 42.1942 30.2931 42.2662C30.2653 42.3067 30.2404 42.3432 30.2227 42.37C30.0935 42.5666 30.0327 42.7052 30.0356 42.862C30.0385 43.0206 30.1103 43.2911 30.4653 43.7258C30.7881 44.1213 30.6894 44.6448 30.5614 44.9884C30.4191 45.3703 30.1624 45.7562 29.8649 46.0489C29.5858 46.3234 29.1749 46.6086 28.7149 46.5903C28.4635 46.5801 28.2278 46.4788 28.0384 46.287C27.8584 46.1045 27.7386 45.8597 27.6609 45.5813C27.5543 45.2001 27.4125 45.0524 27.3141 44.9866C27.2082 44.9161 27.0759 44.8883 26.8891 44.8847C26.8236 44.8834 26.7683 44.8848 26.706 44.8864C26.6713 44.8872 26.6344 44.8881 26.5924 44.8887C26.4972 44.8899 26.3569 44.8899 26.2225 44.8571C26.0737 44.8209 25.8795 44.7312 25.7614 44.5172C25.6557 44.3254 25.6602 44.1183 25.6846 43.9581C25.8 43.2002 25.5624 42.6597 25.3425 42.1593C25.3208 42.11 25.2993 42.061 25.2784 42.0123C25.2216 41.8805 25.1615 41.7324 25.1245 41.584C25.0872 41.434 25.0643 41.2494 25.1139 41.0541C25.2225 40.6267 25.5988 40.4035 26.0043 40.2633C26.1276 40.2206 26.2481 40.1785 26.366 40.1373C27.1469 39.8641 27.8081 39.6328 28.3725 39.5854C28.7194 39.5562 29.0552 39.5918 29.3846 39.7313Z" fill="#FFD433"/>
<path d="M19.0319 25.206H25.538C24.8671 27.4372 24.0475 32.3196 26.2834 34.2288C26.2834 34.2288 23.3027 39.5571 21.49 42.9027C20.8809 44.0268 20.5134 46.4332 19.9988 47.397C19.2736 47.397 19.0319 47.397 19.0319 47.397V42.9027V25.206Z" fill="#FDBF87"/>
<path fill-rule="evenodd" clip-rule="evenodd" d="M24.954 25.206C24.954 25.4666 24.9359 25.7585 24.9064 26.0773C24.8707 26.4585 24.8183 26.8754 24.7606 27.3218C24.7541 27.3718 24.7476 27.4222 24.741 27.473C24.6421 28.2361 24.5345 29.0665 24.4889 29.8837C24.4006 31.467 24.5303 33.1785 25.5849 34.3144C25.5155 34.4699 25.4207 34.6805 25.3041 34.9347C25.0404 35.5097 24.6653 36.3077 24.2201 37.1984C23.3259 38.9881 22.1637 41.1231 21.0626 42.5865C20.4397 43.4141 20.156 44.6517 20.0187 45.6104C19.9482 46.1024 19.9132 46.5465 19.8956 46.8675C19.8947 46.8836 19.8939 46.8993 19.8931 46.9146H19.0319V47.8794H20.8448V47.397V47.3961V47.3908C20.8448 47.3859 20.8449 47.3782 20.845 47.3677C20.8453 47.3468 20.8457 47.3151 20.8467 47.2737C20.8488 47.1911 20.8529 47.0703 20.8611 46.9201C20.8775 46.6195 20.9104 46.2043 20.9759 45.7469C21.1105 44.8065 21.3708 43.7836 21.8357 43.1657C22.993 41.6278 24.1875 39.426 25.0855 37.629C25.5364 36.7265 25.9162 35.9186 26.1832 35.3363C26.3169 35.0451 26.4224 34.81 26.4946 34.6474C26.5307 34.5661 26.5585 34.5031 26.5774 34.46C26.5868 34.4385 26.5941 34.422 26.5989 34.4109L26.6064 34.3937C26.6064 34.3937 26.6064 34.3936 26.1626 34.2023L26.6064 34.3936L26.7465 34.0699L26.48 33.8383C25.5857 33.0617 25.3795 31.6396 25.4695 29.9262C25.5113 29.1283 25.6136 28.3132 25.7117 27.5325C25.7163 27.4958 25.7208 27.4592 25.7254 27.4228C25.7797 26.9896 25.8324 26.5633 25.8694 26.1622C25.9009 25.8239 25.9209 25.5017 25.9209 25.206H24.954Z" fill="#421769"/>
<path d="M1.62598 47.397C1.72201 38.588 7.70543 35.7855 10.3465 34.9338C11.3323 34.6158 12.7339 33.5953 13.3304 33.1106L18.4276 47.397H1.62598Z" fill="#421769"/>
<path fill-rule="evenodd" clip-rule="evenodd" d="M13.5561 32.305L13.0252 32.7365C12.7388 32.9691 12.2532 33.335 11.721 33.6802C11.1808 34.0304 10.6277 34.336 10.1978 34.4747C8.83595 34.9138 6.59722 35.86 4.6833 37.847C2.75861 39.8453 1.19189 42.8665 1.14255 47.3917L1.13724 47.8794H19.1129L13.5561 32.305ZM13.0986 33.899L17.7423 46.9146H2.12102C2.2698 42.9057 3.69643 40.264 5.38038 38.5157C7.14243 36.6862 9.21594 35.8052 10.4951 35.3928C11.051 35.2134 11.6916 34.8499 12.2478 34.4892C12.5546 34.2903 12.8463 34.0852 13.0986 33.899Z" fill="#421769"/>
<path d="M19.1527 25.206H12.6467C13.3174 27.4372 14.1371 32.3196 11.9012 34.2288C11.9012 34.2288 14.8819 39.5571 16.6946 42.9027C17.3037 44.0268 17.6713 46.4332 18.1859 47.397C18.911 47.397 19.1527 47.397 19.1527 47.397V42.9027V25.206Z" fill="#FDBF87"/>
<path fill-rule="evenodd" clip-rule="evenodd" d="M13.2307 25.206C13.2307 25.4666 13.2488 25.7585 13.2783 26.0773C13.3139 26.4585 13.3664 26.8754 13.424 27.3218C13.4306 27.3718 13.4371 27.4222 13.4436 27.473C13.5425 28.2361 13.6502 29.0665 13.6957 29.8837C13.7841 31.467 13.6543 33.1785 12.5997 34.3144C12.669 34.4699 12.7639 34.6805 12.8805 34.9347C13.1442 35.5097 13.5194 36.3077 13.9645 37.1984C14.8588 38.9881 16.0209 41.1231 17.1221 42.5865C17.745 43.4141 18.0286 44.6517 18.1659 45.6104C18.2364 46.1024 18.2715 46.5465 18.289 46.8675C18.2899 46.8836 18.2907 46.8993 18.2915 46.9146H19.1528V47.8794H17.3399V47.397V47.3961V47.3908C17.3398 47.3859 17.3398 47.3782 17.3396 47.3677C17.3394 47.3468 17.3389 47.3151 17.3378 47.2737C17.3359 47.1911 17.3318 47.0703 17.3236 46.9201C17.3071 46.6195 17.2742 46.2043 17.2087 45.7469C17.0741 44.8065 16.8139 43.7836 16.3489 43.1657C15.1916 41.6278 13.997 39.426 13.0992 37.629C12.6482 36.7265 12.2684 35.9186 12.0013 35.3363C11.8677 35.0451 11.7622 34.81 11.69 34.6474C11.6539 34.5661 11.6261 34.5031 11.6072 34.46C11.5978 34.4385 11.5906 34.422 11.5858 34.4109L11.5783 34.3937C11.5783 34.3937 11.5782 34.3936 12.022 34.2023L11.5782 34.3936L11.4381 34.0699L11.7047 33.8383C12.5989 33.0617 12.8051 31.6396 12.7152 29.9262C12.6734 29.1283 12.571 28.3132 12.473 27.5325C12.4684 27.4958 12.4638 27.4592 12.4592 27.4228C12.4049 26.9896 12.3522 26.5633 12.3152 26.1622C12.2837 25.8239 12.2638 25.5017 12.2638 25.206H13.2307Z" fill="#421769"/>
<path d="M27.3101 20.6349V15.6784C27.3101 11.1491 23.6306 7.47739 19.0917 7.47739C14.5528 7.47739 10.8733 11.1491 10.8733 15.6784V20.6349C10.8733 25.1643 14.5528 28.8359 19.0917 28.8359C23.6306 28.8359 27.3101 25.1643 27.3101 20.6349Z" fill="#FDBF87"/>
<path fill-rule="evenodd" clip-rule="evenodd" d="M19.0917 7.95979C14.8198 7.95979 11.3567 11.4155 11.3567 15.6784V20.6349C11.3567 24.8979 14.8198 28.3535 19.0917 28.3535C23.3636 28.3535 26.8267 24.8979 26.8267 20.6349V15.6784C26.8267 11.4155 23.3636 7.95979 19.0917 7.95979ZM10.3899 15.6784C10.3899 10.8827 14.2859 6.99496 19.0917 6.99496C23.8976 6.99496 27.7936 10.8827 27.7936 15.6784V20.6349C27.7936 25.4307 23.8976 29.3183 19.0917 29.3183C14.2858 29.3183 10.3899 25.4307 10.3899 20.6349V15.6784Z" fill="#421769"/>
<path fill-rule="evenodd" clip-rule="evenodd" d="M20.3645 23.6933C20.2311 23.6933 20.1228 23.8012 20.1228 23.9345C20.1228 24.5303 19.6477 25.0065 19.07 25.0065C18.4924 25.0065 18.0173 24.5303 18.0173 23.9345C18.0173 23.8012 17.909 23.6933 17.7756 23.6933C17.642 23.6933 17.5338 23.8012 17.5338 23.9345C17.5338 24.7892 18.2178 25.489 19.07 25.489C19.9221 25.489 20.6062 24.7892 20.6062 23.9345C20.6062 23.8012 20.498 23.6933 20.3645 23.6933Z" fill="#421769"/>
<path fill-rule="evenodd" clip-rule="evenodd" d="M16.8718 21.6867C16.8221 21.6702 16.7686 21.6702 16.7189 21.6867L16.1466 21.877C16.02 21.9193 15.883 21.8509 15.8409 21.7246C15.7987 21.5982 15.8671 21.4616 15.9937 21.4195L16.566 21.229C16.7149 21.1796 16.8758 21.1796 17.0247 21.229L17.4441 21.3686C17.4937 21.3851 17.5473 21.3851 17.5969 21.3686L18.0163 21.229C18.1652 21.1796 18.3261 21.1796 18.475 21.229L18.8944 21.3686C18.944 21.3851 18.9976 21.3851 19.0473 21.3686L19.4666 21.229C19.6155 21.1796 19.7764 21.1796 19.9253 21.229L20.3447 21.3686C20.3943 21.3851 20.4479 21.3851 20.4976 21.3686L20.9169 21.229C21.0658 21.1796 21.2267 21.1796 21.3756 21.229L21.9479 21.4195C22.0745 21.4616 22.1429 21.5982 22.1008 21.7246C22.0586 21.8509 21.9216 21.9193 21.795 21.877L21.2227 21.6867C21.173 21.6702 21.1195 21.6702 21.0698 21.6867L20.6504 21.8263C20.5015 21.8757 20.3407 21.8757 20.1918 21.8263L19.7724 21.6867C19.7227 21.6702 19.6692 21.6702 19.6195 21.6867L19.2001 21.8263C19.0512 21.8757 18.8904 21.8757 18.7415 21.8263L18.3221 21.6867C18.2724 21.6702 18.2189 21.6702 18.1692 21.6867L17.7498 21.8263C17.6009 21.8757 17.4401 21.8757 17.2912 21.8263L16.8718 21.6867Z" fill="#421769"/>
<path d="M12.0207 12.2897L10.6196 14.3424C10.4182 14.6372 10.0528 14.774 9.70683 14.6838L9.61044 14.6587C9.097 14.5248 8.86747 13.9271 9.15982 13.4852L9.19033 13.439C9.42921 13.0781 9.29926 12.5899 8.91229 12.3946C8.45886 12.166 8.37562 11.5549 8.75142 11.2137L8.98524 11.0014C9.34153 10.6779 9.35566 10.1233 9.0163 9.78217L8.92375 9.68913C8.52786 9.29118 8.62358 8.62579 9.11567 8.35505L9.32395 8.24046C9.73469 8.01449 9.8828 7.49821 9.65414 7.08957L9.52164 6.85279C9.23748 6.34498 9.54097 5.70926 10.1152 5.6095L10.1742 5.59925C10.5793 5.52885 10.8751 5.17792 10.8751 4.76753V4.4248C10.8751 3.857 11.4513 3.46995 11.9785 3.68365C12.4218 3.86335 12.9231 3.61806 13.0522 3.15833L13.141 2.84171C13.296 2.28966 13.9455 2.04903 14.424 2.36642L14.4441 2.3797C14.8631 2.65765 15.4311 2.51145 15.6631 2.06593L15.7645 1.87133C16.0137 1.39265 16.6429 1.2669 17.0577 1.61283L17.3671 1.87084C17.7675 2.20473 18.3723 2.1009 18.6378 1.65272L18.751 1.46172C19.0173 1.01237 19.6242 0.909411 20.0243 1.24574L20.4971 1.64313C20.7571 1.8617 21.1229 1.90374 21.4259 1.74988L22.1808 1.36649C22.6298 1.13846 23.1777 1.35016 23.3559 1.82048L23.5415 2.31061C23.7018 2.73403 24.1683 2.95592 24.5989 2.81359L25.3001 2.58182C25.7148 2.44473 26.166 2.64535 26.3412 3.04477L26.7602 4.0004C26.845 4.19369 26.9992 4.34829 27.1926 4.43377L27.8157 4.70938C28.2716 4.911 28.4548 5.46037 28.2108 5.89434L28.1522 5.99838C27.9291 6.39529 28.0613 6.89731 28.4513 7.13334L28.6159 7.23301C29.0213 7.47835 29.084 8.04015 28.7427 8.36852C28.3876 8.71024 28.4725 9.29874 28.9097 9.52666L29.0441 9.59667C29.4764 9.822 29.6226 10.3685 29.3602 10.7788L29.1521 11.1042C28.9849 11.3656 28.9747 11.6974 29.1258 11.9685L29.5005 12.6413C29.7012 13.0016 29.6118 13.4538 29.2891 13.711L28.7211 14.1639C28.341 14.4668 27.7838 14.3883 27.5027 13.9922L26.2849 12.2769C26.1263 12.0535 25.869 11.9207 25.5946 11.9207H12.7199C12.44 11.9207 12.1782 12.0588 12.0207 12.2897Z" fill="#421769"/>
<path fill-rule="evenodd" clip-rule="evenodd" d="M18.3349 1.21618C18.7533 0.510068 19.7071 0.348274 20.3358 0.876786L20.8085 1.27418C20.9199 1.36785 21.0768 1.38587 21.2066 1.31993L21.9615 0.936546C22.6671 0.578202 23.5283 0.910882 23.8081 1.64994L23.9938 2.14006C24.0624 2.32153 24.2624 2.41663 24.4469 2.35564L25.1482 2.12387C25.7999 1.90844 26.5088 2.2237 26.7842 2.85136L27.2032 3.80699C27.2396 3.88983 27.3055 3.95609 27.3884 3.99272L28.0116 4.26833C28.7281 4.58516 29.0158 5.44847 28.6323 6.13041L28.5738 6.23445C28.4782 6.40456 28.5349 6.61971 28.7021 6.72087L28.8667 6.82053C29.5432 7.23002 29.6479 8.16771 29.0784 8.71577C28.9608 8.82886 28.989 9.02362 29.1337 9.09905L29.2679 9.16906C29.9516 9.52538 30.1826 10.3896 29.7677 11.0383L29.5597 11.3637C29.488 11.4757 29.4837 11.618 29.5483 11.7341L29.9231 12.4069C30.2384 12.973 30.098 13.6836 29.5909 14.088L29.0228 14.5407C28.4255 15.0169 27.55 14.8935 27.1082 14.2711L25.8905 12.5557C25.8225 12.46 25.7123 12.4031 25.5947 12.4031H12.7199C12.6 12.4031 12.4878 12.4623 12.4203 12.5613L11.0192 14.6139C10.7028 15.0774 10.1285 15.2922 9.58472 15.1505L9.48832 15.1254C8.65438 14.9081 8.28155 13.9371 8.75642 13.2194L8.78691 13.1733C8.86653 13.053 8.82323 12.8903 8.69425 12.8252C7.93852 12.4439 7.79977 11.4255 8.42611 10.8568L8.65995 10.6445C8.81264 10.5059 8.81869 10.2682 8.67326 10.122L8.5807 10.029C7.95859 9.40364 8.10902 8.35802 8.88231 7.93259L9.09058 7.81801C9.26661 7.72115 9.33009 7.49989 9.23209 7.32476L9.09959 7.08798C8.65304 6.29 9.12996 5.29099 10.0323 5.13423L10.0913 5.12397C10.2649 5.0938 10.3917 4.94341 10.3917 4.76752V4.42479C10.3917 3.5146 11.3154 2.89413 12.1605 3.23669C12.3364 3.30803 12.5354 3.21067 12.5867 3.02816L12.6755 2.71155C12.9192 1.84404 13.9398 1.46592 14.6917 1.96467L14.7118 1.97795C14.8912 2.09707 15.1348 2.0344 15.2342 1.84348L15.3355 1.64888C15.7272 0.896647 16.7159 0.699033 17.3678 1.24266L17.6772 1.50067C17.8487 1.64376 18.1079 1.59927 18.2218 1.40718L18.3349 1.21618ZM19.7129 1.61467C19.5414 1.47052 19.2813 1.51465 19.1671 1.70723L19.054 1.89823C18.6367 2.60253 17.6862 2.76567 17.057 2.24101L16.7476 1.98299C16.5699 1.83473 16.3003 1.88862 16.1935 2.09378L16.0921 2.28837C15.7276 2.98846 14.8349 3.21821 14.1765 2.78143L14.1564 2.76815C13.9514 2.63214 13.673 2.73525 13.6066 2.97185L13.5177 3.28846C13.3108 4.02545 12.5072 4.41864 11.7966 4.13058C11.5873 4.04575 11.3585 4.1994 11.3585 4.42479V4.76752C11.3585 5.41241 10.8938 5.96388 10.2571 6.07449L10.1981 6.08475C9.95204 6.1275 9.82197 6.39995 9.94376 6.61759L10.0763 6.85436C10.4356 7.49651 10.2029 8.30782 9.5574 8.66291L9.34913 8.7775C9.13824 8.89353 9.09721 9.17871 9.26687 9.34925L9.35942 9.44229C9.8927 9.97833 9.8705 10.8499 9.31063 11.3582L9.07679 11.5705C8.95155 11.6842 8.97928 11.8879 9.13042 11.9641C9.77536 12.2894 9.99195 13.103 9.5938 13.7048L9.56331 13.751C9.45345 13.917 9.5397 14.1417 9.73262 14.192L9.82902 14.217C9.97726 14.2556 10.1338 14.1971 10.22 14.0708L11.6212 12.0181C11.8688 11.6554 12.2801 11.4383 12.7199 11.4383H25.5947C26.0258 11.4383 26.4303 11.647 26.6795 11.9981L27.8971 13.7134C28.0176 13.8832 28.2565 13.9169 28.4194 13.787L28.9874 13.3341C29.1257 13.2239 29.164 13.0301 29.0781 12.8757L28.7033 12.2029C28.466 11.7769 28.4819 11.2554 28.7446 10.8447L28.9527 10.5193C29.0626 10.3475 29.0014 10.1186 28.8204 10.0243L28.686 9.95425C27.9561 9.57384 27.8145 8.5916 28.4072 8.02126C28.5202 7.91258 28.4994 7.72666 28.3652 7.64547L28.2006 7.54579C27.5877 7.17488 27.38 6.386 27.7307 5.76229L27.7892 5.65825C27.8938 5.47226 27.8153 5.23682 27.6199 5.15041L26.9967 4.87481C26.6929 4.74047 26.4506 4.49753 26.3174 4.1938L25.8984 3.23817C25.8232 3.06698 25.6299 2.981 25.4522 3.03975L24.7509 3.27152C24.0742 3.49518 23.3412 3.1465 23.0892 2.48112L22.9037 1.99099C22.8273 1.78942 22.5925 1.69869 22.4001 1.79642L21.6451 2.1798C21.169 2.42159 20.5941 2.35552 20.1856 2.01207L19.7129 1.61467Z" fill="#421769"/>
</g>
<defs>
<clipPath id="clip0_20_41069">
<rect width="37.1038" height="48" fill="white" transform="translate(0.479401)"/>
</clipPath>
</defs>
</svg>
