<svg width="42" height="48" viewBox="0 0 42 48" fill="none" xmlns="http://www.w3.org/2000/svg">
<g clip-path="url(#clip0_20_41504)">
<path d="M11.5383 16.4872H11.8361H12.6935V21.1105H11.8361H11.5383C10.2623 21.1105 9.22787 20.0755 9.22787 18.7989C9.22787 17.5222 10.2623 16.4872 11.5383 16.4872Z" fill="#FDBF87"/>
<path fill-rule="evenodd" clip-rule="evenodd" d="M13.2371 15.9434H11.5383C9.96203 15.9434 8.68424 17.2218 8.68424 18.7989C8.68424 20.3759 9.96203 21.6544 11.5383 21.6544H13.2371V15.9434ZM12.1499 17.0312V20.5666H11.5383C10.5625 20.5666 9.77149 19.7752 9.77149 18.7989C9.77149 17.8226 10.5625 17.0312 11.5383 17.0312H12.1499Z" fill="#421769"/>
<path d="M30.9729 16.4872H30.6751H29.8177V21.1105H30.6751H30.9729C32.2489 21.1105 33.2833 20.0755 33.2833 18.7989C33.2833 17.5222 32.2489 16.4872 30.9729 16.4872Z" fill="#FDBF87"/>
<path fill-rule="evenodd" clip-rule="evenodd" d="M29.274 15.9434H30.9729C32.5491 15.9434 33.8269 17.2218 33.8269 18.7989C33.8269 20.3759 32.5491 21.6544 30.9729 21.6544H29.274V15.9434ZM30.3613 17.0312V20.5666H30.9729C31.9487 20.5666 32.7396 19.7752 32.7396 18.7989C32.7396 17.8226 31.9487 17.0312 30.9729 17.0312H30.3613Z" fill="#421769"/>
<path d="M1.41146 47.3201C1.51946 37.3882 8.24781 34.2284 11.2177 33.2681C12.3262 32.9097 13.9024 31.759 14.5731 31.2125L20.3049 47.3201H1.41146Z" fill="white"/>
<path fill-rule="evenodd" clip-rule="evenodd" d="M14.8269 30.3042L14.2299 30.7907C13.9078 31.053 13.3618 31.4656 12.7633 31.8547C12.1559 32.2496 11.5339 32.5942 11.0505 32.7506C9.51907 33.2457 7.00163 34.3124 4.84942 36.5528C2.68511 38.8058 0.923329 42.2121 0.867852 47.3141L0.861874 47.864H21.0755L14.8269 30.3042ZM14.3124 32.1014L19.5343 46.7762H1.96814C2.13544 42.2563 3.73969 39.2779 5.63328 37.3066C7.61472 35.244 9.94638 34.2507 11.3848 33.7856C12.0099 33.5834 12.7303 33.1736 13.3557 32.7669C13.7007 32.5427 14.0288 32.3114 14.3124 32.1014Z" fill="#421769"/>
<path d="M21.1203 22.3003H13.8043C14.5585 24.8159 15.4802 30.3206 12.966 32.4733C12.966 32.4733 16.3178 38.4808 18.3561 42.2529C19.0411 43.5204 19.4544 46.2335 20.0331 47.3201C20.8485 47.3201 21.1203 47.3201 21.1203 47.3201V42.2529V22.3003Z" fill="#FDBF87"/>
<path fill-rule="evenodd" clip-rule="evenodd" d="M14.4609 22.3003C14.4609 22.5941 14.4813 22.9232 14.5145 23.2826C14.5546 23.7124 14.6136 24.1825 14.6784 24.6857C14.6857 24.7422 14.6931 24.799 14.7004 24.8563C14.8116 25.7166 14.9327 26.6529 14.9839 27.5743C15.0833 29.3594 14.9373 31.2891 13.7514 32.5698C13.8294 32.7451 13.9361 32.9825 14.0672 33.2692C14.3638 33.9175 14.7856 34.8171 15.2862 35.8215C16.2917 37.8392 17.5986 40.2464 18.8368 41.8964C19.5373 42.8295 19.8563 44.2249 20.0107 45.3058C20.0899 45.8605 20.1293 46.3612 20.149 46.7232C20.1501 46.7413 20.1509 46.7589 20.1519 46.7762H21.1203V47.864H19.0817V47.3201V47.3192V47.3132C19.0816 47.3076 19.0816 47.2989 19.0815 47.2871C19.0812 47.2636 19.0807 47.2278 19.0794 47.1812C19.0773 47.088 19.0726 46.9518 19.0634 46.7825C19.0449 46.4435 19.008 45.9754 18.9343 45.4597C18.7829 44.3995 18.4903 43.2461 17.9675 42.5495C16.666 40.8155 15.3227 38.333 14.3131 36.3069C13.806 35.2894 13.3789 34.3785 13.0786 33.722C12.9283 33.3936 12.8097 33.1286 12.7285 32.9453C12.6878 32.8536 12.6566 32.7825 12.6354 32.734C12.6248 32.7098 12.6167 32.6911 12.6112 32.6786L12.6028 32.6592C12.6028 32.6592 12.6027 32.659 13.1018 32.4434L12.6027 32.659L12.4452 32.2941L12.745 32.033C13.7506 31.1574 13.9824 29.554 13.8813 27.6222C13.8342 26.7225 13.7192 25.8036 13.6089 24.9233C13.6037 24.882 13.5986 24.8408 13.5934 24.7997C13.5324 24.3113 13.4731 23.8306 13.4315 23.3783C13.3961 22.9969 13.3737 22.6337 13.3737 22.3003H14.4609Z" fill="#421769"/>
<path d="M40.6933 47.3201C40.5852 37.3882 33.8569 34.2284 30.8871 33.2681C29.7785 32.9097 28.2024 31.759 27.5316 31.2125L21.7999 47.3201H40.6933Z" fill="white"/>
<path fill-rule="evenodd" clip-rule="evenodd" d="M27.2778 30.3042L27.8749 30.7907C28.197 31.053 28.743 31.4656 29.3414 31.8547C29.9488 32.2496 30.5708 32.5942 31.0543 32.7506C32.5857 33.2457 35.103 34.3124 37.2554 36.5528C39.4196 38.8058 41.1815 42.2121 41.2369 47.3141L41.2429 47.864H21.0293L27.2778 30.3042ZM27.7924 32.1014L22.5705 46.7762H40.1366C39.9693 42.2563 38.3651 39.2779 36.4715 37.3066C34.49 35.244 32.1584 34.2507 30.7199 33.7856C30.0948 33.5834 29.3745 33.1736 28.749 32.7669C28.4041 32.5427 28.076 32.3114 27.7924 32.1014Z" fill="#421769"/>
<path d="M20.9844 22.3003H28.3005C27.5461 24.8159 26.6245 30.3206 29.1388 32.4733C29.1388 32.4733 25.787 38.4808 23.7486 42.2529C23.0637 43.5204 22.6504 46.2335 22.0717 47.3201C21.2562 47.3201 20.9844 47.3201 20.9844 47.3201V42.2529V22.3003Z" fill="#FDBF87"/>
<path fill-rule="evenodd" clip-rule="evenodd" d="M27.6438 22.3003C27.6438 22.5941 27.6235 22.9232 27.5903 23.2826C27.5502 23.7124 27.4912 24.1825 27.4264 24.6857C27.4191 24.7422 27.4117 24.799 27.4044 24.8563C27.2931 25.7166 27.1721 26.6529 27.1209 27.5743C27.0215 29.3594 27.1674 31.2891 28.3533 32.5698C28.2753 32.7451 28.1687 32.9825 28.0376 33.2692C27.741 33.9175 27.3192 34.8171 26.8186 35.8215C25.813 37.8392 24.5062 40.2464 23.2679 41.8964C22.5675 42.8295 22.2485 44.2249 22.0941 45.3058C22.0149 45.8605 21.9755 46.3612 21.9556 46.7232C21.9547 46.7413 21.9537 46.7589 21.9529 46.7762H20.9844V47.864H23.023V47.3201V47.3192V47.3132C23.023 47.3076 23.0232 47.2989 23.0233 47.2871C23.0236 47.2636 23.0241 47.2278 23.0252 47.1812C23.0275 47.088 23.0321 46.9518 23.0414 46.7825C23.0599 46.4435 23.0968 45.9754 23.1705 45.4597C23.3219 44.3995 23.6145 43.2461 24.1373 42.5495C25.4388 40.8155 26.7819 38.333 27.7917 36.3069C28.2988 35.2894 28.7258 34.3785 29.0261 33.722C29.1765 33.3936 29.2951 33.1286 29.3762 32.9453C29.4169 32.8536 29.4481 32.7825 29.4693 32.734C29.4799 32.7098 29.4881 32.6911 29.4935 32.6786L29.502 32.6592C29.502 32.6592 29.502 32.659 29.0029 32.4434L29.502 32.659L29.6595 32.2941L29.3598 32.033C28.3542 31.1574 28.1224 29.554 28.2235 27.6222C28.2705 26.7225 28.3856 25.8036 28.4958 24.9233C28.501 24.882 28.5062 24.8408 28.5113 24.7997C28.5724 24.3113 28.6316 23.8306 28.6732 23.3783C28.7087 22.9969 28.7311 22.6337 28.7311 22.3003H27.6438Z" fill="#421769"/>
<path d="M30.4292 19.4448V17.6771C30.4292 12.5704 26.2916 8.4306 21.1876 8.4306C16.0837 8.4306 11.946 12.5704 11.946 17.6771V19.4448C11.946 24.5514 16.0837 28.6912 21.1876 28.6912C26.2916 28.6912 30.4292 24.5514 30.4292 19.4448Z" fill="#FDBF87"/>
<path fill-rule="evenodd" clip-rule="evenodd" d="M21.1876 8.97448C16.3839 8.97448 12.4896 12.8707 12.4896 17.677V19.4447C12.4896 24.251 16.3839 28.1473 21.1876 28.1473C25.9914 28.1473 29.8856 24.251 29.8856 19.4447V17.677C29.8856 12.8707 25.9914 8.97448 21.1876 8.97448ZM11.4024 17.677C11.4024 12.27 15.7833 7.88666 21.1876 7.88666C26.5918 7.88666 30.9729 12.27 30.9729 17.677V19.4447C30.9729 24.8519 26.5918 29.2351 21.1876 29.2351C15.7833 29.2351 11.4024 24.8519 11.4024 19.4447V17.677Z" fill="#421769"/>
<path fill-rule="evenodd" clip-rule="evenodd" d="M19.6926 22.7082C19.8428 22.7082 19.9645 22.8299 19.9645 22.9801C19.9645 23.8813 20.6947 24.6119 21.5953 24.6119C22.0812 24.6119 22.5173 24.3996 22.8165 24.0617C22.9161 23.9494 23.0879 23.9389 23.2001 24.0386C23.3125 24.1383 23.3228 24.3101 23.2234 24.4225C22.8253 24.8719 22.2433 25.1558 21.5953 25.1558C20.3943 25.1558 19.4208 24.1818 19.4208 22.9801C19.4208 22.8299 19.5425 22.7082 19.6926 22.7082Z" fill="#421769"/>
<path d="M13.3721 13.3124L11.7966 15.6268C11.5702 15.9592 11.1593 16.1134 10.7702 16.0117L10.6618 15.9834C10.0844 15.8325 9.82633 15.1586 10.1551 14.6604L10.1894 14.6083C10.458 14.2013 10.3119 13.6509 9.87674 13.4308C9.36686 13.1729 9.27325 12.4839 9.69583 12.0992L9.95877 11.8599C10.3594 11.4952 10.3753 10.8698 9.9937 10.4852L9.88962 10.3804C9.44445 9.93167 9.55209 9.18146 10.1054 8.8762L10.3396 8.74701C10.8015 8.49223 10.9681 7.91014 10.7109 7.44941L10.562 7.18244C10.2424 6.6099 10.5837 5.89313 11.2294 5.78065L11.2957 5.76909C11.7513 5.68972 12.0839 5.29406 12.0839 4.83135V4.44493C12.0839 3.80475 12.7319 3.36836 13.3247 3.6093C13.8231 3.8119 14.3869 3.53535 14.532 3.01701L14.6319 2.66003C14.8063 2.0376 15.5366 1.7663 16.0747 2.12415L16.0972 2.13912C16.5684 2.45251 17.2072 2.28767 17.468 1.78535L17.582 1.56595C17.8623 1.02624 18.5698 0.884454 19.0362 1.2745L19.3841 1.56539C19.8344 1.94185 20.5145 1.82479 20.8131 1.31947L20.9404 1.10411C21.2398 0.597488 21.9223 0.481404 22.3722 0.860604L22.9038 1.30866C23.1962 1.55509 23.6076 1.60249 23.9483 1.42901L24.7972 0.996755C25.302 0.739648 25.9182 0.97834 26.1186 1.50861L26.3273 2.06122C26.5075 2.53863 27.0321 2.7888 27.5164 2.62833L28.3049 2.36701C28.7712 2.21244 29.2785 2.43864 29.4756 2.88897L29.9468 3.96643C30.042 4.18436 30.2155 4.35867 30.4329 4.45505L31.1336 4.76578C31.6463 4.99311 31.8523 5.61251 31.5779 6.1018L31.512 6.21911C31.2611 6.66661 31.4098 7.23263 31.8484 7.49875L32.0335 7.61112C32.4893 7.88774 32.5598 8.52117 32.176 8.89139C31.7767 9.27667 31.8722 9.9402 32.3639 10.1972L32.515 10.2761C33.0011 10.5302 33.1654 11.1464 32.8704 11.609L32.6364 11.9758C32.4484 12.2705 32.437 12.6447 32.6069 12.9503L33.0282 13.7088C33.2539 14.1151 33.1533 14.6249 32.7905 14.9149L32.1517 15.4255C31.7243 15.7671 31.0978 15.6786 30.7816 15.232L29.4123 13.298C29.2339 13.0461 28.9446 12.8964 28.636 12.8964H14.1584C13.8437 12.8964 13.5493 13.0521 13.3721 13.3124Z" fill="#421769"/>
<path fill-rule="evenodd" clip-rule="evenodd" d="M20.4725 0.827324C20.943 0.0311948 22.0156 -0.151223 22.7225 0.444663L23.2541 0.892717C23.3794 0.998328 23.5558 1.01864 23.7017 0.944297L24.5506 0.512041C25.344 0.108016 26.3125 0.483105 26.6271 1.31638L26.8359 1.86898C26.9131 2.07359 27.138 2.1808 27.3454 2.11204L28.1341 1.85072C28.8669 1.60784 29.6641 1.96328 29.9737 2.67095L30.4449 3.74841C30.4858 3.84181 30.56 3.91651 30.6532 3.95781L31.3539 4.26856C32.1596 4.62577 32.4832 5.59914 32.052 6.36801L31.9862 6.48532C31.8787 6.67711 31.9424 6.91968 32.1304 7.03374L32.3155 7.14611C33.0763 7.6078 33.194 8.66502 32.5536 9.28296C32.4214 9.41046 32.453 9.63005 32.6157 9.71509L32.7667 9.79403C33.5355 10.1958 33.7952 11.1701 33.3287 11.9016L33.0948 12.2684C33.0142 12.3947 33.0093 12.5551 33.082 12.6861L33.5034 13.4446C33.858 14.0829 33.7001 14.8841 33.1298 15.34L32.4911 15.8505C31.8194 16.3873 30.8349 16.2482 30.338 15.5464L28.9688 13.6124C28.8923 13.5045 28.7683 13.4404 28.6361 13.4404H14.1584C14.0236 13.4404 13.8975 13.5071 13.8215 13.6187L12.2459 15.933C11.8902 16.4556 11.2444 16.6978 10.6329 16.538L10.5245 16.5097C9.58674 16.2647 9.1675 15.1699 9.70149 14.3607L9.73578 14.3088C9.82531 14.1731 9.77662 13.9896 9.63158 13.9162C8.78176 13.4865 8.62574 12.3381 9.33006 11.697L9.59301 11.4576C9.76471 11.3013 9.77151 11.0333 9.60797 10.8685L9.50389 10.7636C8.80433 10.0585 8.97349 8.87959 9.84305 8.39993L10.0773 8.27074C10.2752 8.16154 10.3466 7.91207 10.2364 7.71462L10.0874 7.44766C9.58524 6.54795 10.1215 5.42158 11.1362 5.24484L11.2025 5.23328C11.3978 5.19926 11.5403 5.02969 11.5403 4.83138V4.44496C11.5403 3.41874 12.5791 2.71918 13.5293 3.10541C13.7272 3.18584 13.951 3.07607 14.0086 2.87029L14.1085 2.51332C14.3825 1.53522 15.5302 1.1089 16.3757 1.67123L16.3983 1.6862C16.6001 1.82051 16.874 1.74985 16.9858 1.53459L17.0997 1.31518C17.5402 0.467056 18.6519 0.24425 19.385 0.857172L19.7329 1.14808C19.9257 1.30941 20.2172 1.25924 20.3453 1.04268L20.4725 0.827324ZM22.0221 1.27661C21.8292 1.11409 21.5368 1.16384 21.4083 1.38097L21.2811 1.59632C20.8118 2.3904 19.7431 2.57434 19.0355 1.98279L18.6876 1.69188C18.4877 1.52473 18.1846 1.58548 18.0645 1.81679L17.9505 2.03619C17.5406 2.82553 16.5368 3.08456 15.7964 2.59211L15.7738 2.57714C15.5433 2.42378 15.2302 2.54004 15.1556 2.8068L15.0555 3.16377C14.8229 3.99471 13.9192 4.43803 13.1201 4.11325C12.8848 4.0176 12.6276 4.19083 12.6276 4.44496V4.83138C12.6276 5.55848 12.105 6.18025 11.389 6.30497L11.3227 6.31653C11.046 6.36473 10.8997 6.67192 11.0367 6.9173L11.1857 7.18425C11.5897 7.90826 11.328 8.823 10.6022 9.22336L10.368 9.35255C10.1308 9.48337 10.0847 9.8049 10.2755 9.99719L10.3796 10.1021C10.9792 10.7065 10.9543 11.6891 10.3247 12.2622L10.0617 12.5016C9.92091 12.6298 9.9521 12.8594 10.1221 12.9454C10.8473 13.3122 11.0908 14.2295 10.6431 14.908L10.6088 14.9601C10.4853 15.1472 10.5823 15.4005 10.7992 15.4572L10.9076 15.4855C11.0743 15.529 11.2504 15.4631 11.3473 15.3206L12.9229 13.0062C13.2013 12.5973 13.6639 12.3525 14.1584 12.3525H28.6361C29.1209 12.3525 29.5757 12.5878 29.856 12.9837L31.2252 14.9177C31.3607 15.1091 31.6293 15.1471 31.8125 15.0006L32.4513 14.49C32.6067 14.3657 32.6498 14.1472 32.5532 13.9732L32.1317 13.2146C31.865 12.7343 31.8828 12.1464 32.1782 11.6832L32.4122 11.3164C32.5358 11.1227 32.467 10.8646 32.2634 10.7582L32.1123 10.6793C31.2916 10.2504 31.1323 9.14295 31.7988 8.4999C31.9258 8.37737 31.9025 8.16775 31.7516 8.07621L31.5665 7.96383C30.8773 7.54563 30.6437 6.65619 31.0381 5.95296L31.1039 5.83566C31.2214 5.62597 31.1332 5.36051 30.9135 5.26308L30.2127 4.95235C29.8711 4.80088 29.5986 4.52697 29.4488 4.18453L28.9776 3.10707C28.8931 2.91406 28.6758 2.81712 28.4759 2.88336L27.6873 3.14468C26.9264 3.39685 26.1021 3.00371 25.8188 2.25351L25.6101 1.7009C25.5242 1.47364 25.2602 1.37134 25.0438 1.48153L24.1948 1.91379C23.6595 2.18639 23.013 2.1119 22.5536 1.72467L22.0221 1.27661Z" fill="#421769"/>
<path d="M16.7027 38.7535C20.7255 42.2346 24.1776 40.204 25.4007 38.7535V47.864H16.7027V38.7535Z" fill="#FFD433"/>
<path fill-rule="evenodd" clip-rule="evenodd" d="M16.7027 38.7535V47.864H25.4007V38.7535C25.1366 39.0667 24.7686 39.4069 24.3135 39.7129C22.853 40.6943 20.4948 41.3232 17.79 39.5744C17.4332 39.3437 17.0703 39.0716 16.7027 38.7535ZM17.79 40.8393V46.7762H24.3135V40.98C23.7205 41.2963 23.0378 41.5492 22.2807 41.6758C20.9168 41.9037 19.3841 41.7089 17.79 40.8393Z" fill="#421769"/>
</g>
<defs>
<clipPath id="clip0_20_41504">
<rect width="41.5873" height="48" fill="white" transform="translate(0.258057)"/>
</clipPath>
</defs>
</svg>
