<svg width="43" height="48" viewBox="0 0 43 48" fill="none" xmlns="http://www.w3.org/2000/svg">
<path d="M12.1064 16.4872H12.4044H13.2625V21.1105H12.4044H12.1064C10.8294 21.1105 9.7942 20.0755 9.7942 18.7989C9.7942 17.5222 10.8294 16.4872 12.1064 16.4872Z" fill="#FDBF87"/>
<path fill-rule="evenodd" clip-rule="evenodd" d="M13.8065 15.9434H12.1064C10.5289 15.9434 9.25016 17.2218 9.25016 18.7989C9.25016 20.3759 10.5289 21.6544 12.1064 21.6544H13.8065V15.9434ZM12.7184 17.0312V20.5666H12.1064C11.1299 20.5666 10.3382 19.7752 10.3382 18.7989C10.3382 17.8226 11.1299 17.0312 12.1064 17.0312H12.7184Z" fill="#421769"/>
<path d="M31.5558 16.4872H31.2578H30.3997V21.1105H31.2578H31.5558C32.8328 21.1105 33.868 20.0755 33.868 18.7989C33.868 17.5222 32.8328 16.4872 31.5558 16.4872Z" fill="#FDBF87"/>
<path fill-rule="evenodd" clip-rule="evenodd" d="M29.8557 15.9434H31.5558C33.1332 15.9434 34.412 17.2218 34.412 18.7989C34.412 20.3759 33.1332 21.6544 31.5558 21.6544H29.8557V15.9434ZM30.9437 17.0312V20.5666H31.5558C32.5323 20.5666 33.3239 19.7752 33.3239 18.7989C33.3239 17.8226 32.5323 17.0312 31.5558 17.0312H30.9437Z" fill="#421769"/>
<path d="M1.97182 47.3201C2.0799 37.3882 8.81339 34.2284 11.7855 33.2681C12.8949 32.9097 14.4723 31.759 15.1435 31.2125L20.8797 47.3201H1.97182Z" fill="#421769"/>
<path fill-rule="evenodd" clip-rule="evenodd" d="M15.3975 30.3042L14.8 30.7907C14.4777 31.053 13.9312 31.4656 13.3324 31.8547C12.7245 32.2496 12.102 32.5942 11.6182 32.7506C10.0856 33.2457 7.56626 34.3124 5.41241 36.5528C3.24645 38.8058 1.48332 42.2121 1.4278 47.3141L1.42182 47.864H21.6509L15.3975 30.3042ZM14.8826 32.1014L20.1085 46.7762H2.52893C2.69636 42.2563 4.30183 39.2779 6.19687 37.3066C8.17982 35.244 10.5133 34.2507 11.9528 33.7856C12.5784 33.5834 13.2993 33.1736 13.9252 32.7669C14.2704 32.5427 14.5988 32.3114 14.8826 32.1014Z" fill="#421769"/>
<path d="M11.087 37.8081L13.4103 33.1955L21.4237 32.6346V47.0833L11.087 42.0869L15.1673 39.8336L11.087 37.8081Z" fill="white"/>
<path d="M21.6958 22.3003H14.3741C15.1289 24.8159 16.0513 30.3206 13.5351 32.4733C13.5351 32.4733 16.8896 38.4808 18.9294 42.2529C19.6149 43.5204 20.0285 46.2335 20.6077 47.3201C21.4237 47.3201 21.6958 47.3201 21.6958 47.3201V42.2529V22.3003Z" fill="#FDBF87"/>
<path fill-rule="evenodd" clip-rule="evenodd" d="M15.0313 22.3003C15.0313 22.5941 15.0517 22.9232 15.0849 23.2826C15.125 23.7124 15.184 24.1825 15.2489 24.6857C15.2562 24.7422 15.2636 24.799 15.2709 24.8563C15.3822 25.7166 15.5034 26.6529 15.5546 27.5743C15.6541 29.3594 15.508 31.2891 14.3212 32.5698C14.3993 32.7451 14.506 32.9825 14.6372 33.2692C14.934 33.9175 15.3562 34.8171 15.8571 35.8215C16.8635 37.8392 18.1713 40.2464 19.4105 41.8964C20.1115 42.8295 20.4307 44.2249 20.5852 45.3058C20.6645 45.8605 20.704 46.3612 20.7237 46.7232C20.7248 46.7413 20.7256 46.7589 20.7265 46.7762H21.6958V47.864H19.6556V47.3201V47.3192V47.3132C19.6555 47.3076 19.6555 47.2989 19.6553 47.2871C19.6551 47.2636 19.6545 47.2278 19.6533 47.1812C19.6511 47.088 19.6465 46.9518 19.6372 46.7825C19.6187 46.4435 19.5818 45.9754 19.508 45.4597C19.3565 44.3995 19.0637 43.2461 18.5405 42.5495C17.238 40.8155 15.8937 38.333 14.8833 36.3069C14.3758 35.2894 13.9484 34.3785 13.6478 33.722C13.4975 33.3936 13.3787 33.1286 13.2975 32.9453C13.2568 32.8536 13.2255 32.7825 13.2043 32.734C13.1937 32.7098 13.1856 32.6911 13.1802 32.6786L13.1717 32.6592C13.1717 32.6592 13.1717 32.659 13.6711 32.4434L13.1717 32.659L13.014 32.2941L13.314 32.033C14.3204 31.1574 14.5524 29.554 14.4512 27.6222C14.4041 26.7225 14.2889 25.8036 14.1786 24.9233C14.1734 24.882 14.1683 24.8408 14.1631 24.7997C14.102 24.3113 14.0427 23.8306 14.001 23.3783C13.9656 22.9969 13.9432 22.6337 13.9432 22.3003H15.0313Z" fill="#421769"/>
<path d="M41.2836 47.3201C41.1755 37.3882 34.4421 34.2284 31.47 33.2681C30.3605 32.9097 28.7832 31.759 28.1119 31.2125L22.3758 47.3201H41.2836Z" fill="#421769"/>
<path fill-rule="evenodd" clip-rule="evenodd" d="M27.858 30.3042L28.4555 30.7907C28.7778 31.053 29.3243 31.4656 29.9231 31.8547C30.531 32.2496 31.1535 32.5942 31.6373 32.7506C33.1698 33.2457 35.6891 34.3124 37.8431 36.5528C40.009 38.8058 41.7722 42.2121 41.8277 47.3141L41.8337 47.864H21.6046L27.858 30.3042ZM28.3729 32.1014L23.147 46.7762H40.7265C40.5591 42.2563 38.9537 39.2779 37.0586 37.3066C35.0756 35.244 32.7422 34.2507 31.3027 33.7856C30.677 33.5834 29.9562 33.1736 29.3303 32.7669C28.9851 32.5427 28.6567 32.3114 28.3729 32.1014Z" fill="#421769"/>
<path d="M32.1685 37.8081L29.8452 33.1955L21.8318 32.6346V47.0833L32.1685 42.0869L28.0882 39.8336L32.1685 37.8081Z" fill="white"/>
<path d="M21.5597 22.3003H28.8814C28.1264 24.8159 27.2042 30.3206 29.7203 32.4733C29.7203 32.4733 26.3659 38.4808 24.326 42.2529C23.6406 43.5204 23.2269 46.2335 22.6478 47.3201C21.8318 47.3201 21.5597 47.3201 21.5597 47.3201V42.2529V22.3003Z" fill="#FDBF87"/>
<path fill-rule="evenodd" clip-rule="evenodd" d="M28.2242 22.3003C28.2242 22.5941 28.2038 22.9232 28.1706 23.2826C28.1305 23.7124 28.0715 24.1825 28.0066 24.6857C27.9993 24.7422 27.9919 24.799 27.9846 24.8563C27.8732 25.7166 27.7521 26.6529 27.7009 27.5743C27.6014 29.3594 27.7474 31.2891 28.9342 32.5698C28.8561 32.7451 28.7495 32.9825 28.6182 33.2692C28.3215 33.9175 27.8993 34.8171 27.3984 35.8215C26.392 37.8392 25.0842 40.2464 23.845 41.8964C23.144 42.8295 22.8248 44.2249 22.6703 45.3058C22.591 45.8605 22.5515 46.3612 22.5317 46.7232C22.5307 46.7413 22.5298 46.7589 22.5289 46.7762H21.5597V47.864H23.5999V47.3201V47.3192V47.3132C23.5999 47.3076 23.6 47.2989 23.6002 47.2871C23.6004 47.2636 23.601 47.2278 23.6021 47.1812C23.6044 47.088 23.609 46.9518 23.6182 46.7825C23.6367 46.4435 23.6737 45.9754 23.7475 45.4597C23.899 44.3995 24.1918 43.2461 24.715 42.5495C26.0175 40.8155 27.3617 38.333 28.3722 36.3069C28.8797 35.2894 29.307 34.3785 29.6076 33.722C29.758 33.3936 29.8767 33.1286 29.9579 32.9453C29.9986 32.8536 30.0299 32.7825 30.0511 32.734C30.0617 32.7098 30.0699 32.6911 30.0753 32.6786L30.0838 32.6592C30.0838 32.6592 30.0838 32.659 29.5843 32.4434L30.0838 32.659L30.2414 32.2941L29.9415 32.033C28.9351 31.1574 28.7031 29.554 28.8043 27.6222C28.8514 26.7225 28.9666 25.8036 29.0769 24.9233C29.082 24.882 29.0872 24.8408 29.0924 24.7997C29.1534 24.3113 29.2127 23.8306 29.2544 23.3783C29.2899 22.9969 29.3123 22.6337 29.3123 22.3003H28.2242Z" fill="#421769"/>
<path d="M31.0118 19.4448V17.6771C31.0118 12.5704 26.8709 8.4306 21.7631 8.4306C16.6552 8.4306 12.5144 12.5704 12.5144 17.6771V19.4448C12.5144 24.5514 16.6552 28.6912 21.7631 28.6912C26.8709 28.6912 31.0118 24.5514 31.0118 19.4448Z" fill="#FDBF87"/>
<path fill-rule="evenodd" clip-rule="evenodd" d="M21.7631 8.97448C16.9557 8.97448 13.0584 12.8707 13.0584 17.677V19.4447C13.0584 24.251 16.9557 28.1473 21.7631 28.1473C26.5705 28.1473 30.4677 24.251 30.4677 19.4447V17.677C30.4677 12.8707 26.5705 8.97448 21.7631 8.97448ZM11.9704 17.677C11.9704 12.27 16.3546 7.88666 21.7631 7.88666C27.1714 7.88666 31.5558 12.27 31.5558 17.677V19.4447C31.5558 24.8519 27.1714 29.2351 21.7631 29.2351C16.3546 29.2351 11.9704 24.8519 11.9704 19.4447V17.677Z" fill="#421769"/>
<path fill-rule="evenodd" clip-rule="evenodd" d="M20.267 22.7082C20.4173 22.7082 20.539 22.8299 20.539 22.9801C20.539 23.8813 21.2698 24.6119 22.1711 24.6119C22.6573 24.6119 23.0938 24.3996 23.3932 24.0617C23.4929 23.9494 23.6648 23.9389 23.7771 24.0386C23.8896 24.1383 23.8999 24.3101 23.8004 24.4225C23.402 24.8719 22.8196 25.1558 22.1711 25.1558C20.9692 25.1558 19.9949 24.1818 19.9949 22.9801C19.9949 22.8299 20.1167 22.7082 20.267 22.7082Z" fill="#421769"/>
<path d="M15.0986 18.6289C15.0986 18.8542 14.9159 19.0368 14.6906 19.0368C14.4652 19.0368 14.2825 18.8542 14.2825 18.6289C14.2825 18.4036 14.4652 18.2209 14.6906 18.2209C14.9159 18.2209 15.0986 18.4036 15.0986 18.6289Z" fill="#421769"/>
<path d="M17.2748 18.6289C17.2748 18.8542 17.0921 19.0368 16.8667 19.0368C16.6414 19.0368 16.4587 18.8542 16.4587 18.6289C16.4587 18.4036 16.6414 18.2209 16.8667 18.2209C17.0921 18.2209 17.2748 18.4036 17.2748 18.6289Z" fill="#421769"/>
<path d="M16.1867 19.8527C16.1867 20.078 16.004 20.2606 15.7786 20.2606C15.5533 20.2606 15.3706 20.078 15.3706 19.8527C15.3706 19.6274 15.5533 19.4448 15.7786 19.4448C16.004 19.4448 16.1867 19.6274 16.1867 19.8527Z" fill="#421769"/>
<path d="M27.2035 18.6289C27.2035 18.8542 27.0208 19.0368 26.7955 19.0368C26.5701 19.0368 26.3874 18.8542 26.3874 18.6289C26.3874 18.4036 26.5701 18.2209 26.7955 18.2209C27.0208 18.2209 27.2035 18.4036 27.2035 18.6289Z" fill="#421769"/>
<path d="M29.3796 18.6289C29.3796 18.8542 29.197 19.0368 28.9716 19.0368C28.7462 19.0368 28.5636 18.8542 28.5636 18.6289C28.5636 18.4036 28.7462 18.2209 28.9716 18.2209C29.197 18.2209 29.3796 18.4036 29.3796 18.6289Z" fill="#421769"/>
<path d="M28.2916 19.8527C28.2916 20.078 28.1089 20.2606 27.8835 20.2606C27.6582 20.2606 27.4755 20.078 27.4755 19.8527C27.4755 19.6274 27.6582 19.4448 27.8835 19.4448C28.1089 19.4448 28.2916 19.6274 28.2916 19.8527Z" fill="#421769"/>
<path d="M21.7152 10.7803C23.4704 15.7611 28.7498 16.6492 32.1432 16.421C32.9492 16.3669 33.5483 15.6929 33.5863 14.8863C33.8107 10.1078 33.396 5.94962 32.5504 4.5732C30.3371 0.97072 24.1737 -0.643286 21.8225 0.44503L21.8202 0.446062C21.6876 0.507453 21.538 0.576688 21.5064 0.719151C21.4241 1.09038 21.6271 1.94298 21.6271 2.29502V10.2428C21.6271 10.4248 21.6547 10.6087 21.7152 10.7803Z" fill="#421769"/>
<path d="M21.537 10.7828C19.7586 15.7679 14.4088 16.6514 10.9778 16.4202C10.1711 16.3658 9.57018 15.6921 9.53184 14.8846C9.30496 10.1069 9.72439 5.94947 10.5795 4.57321C12.819 0.968978 19.0574 -0.644846 21.4328 0.44661L21.4388 0.449361C21.5697 0.509459 21.7164 0.576856 21.7484 0.716654C21.8331 1.08654 21.6271 1.94219 21.6271 2.29502V10.2399C21.6271 10.4238 21.5988 10.6095 21.537 10.7828Z" fill="#421769"/>
<path d="M17.2747 38.7535C21.3006 42.2346 24.7553 40.204 25.9794 38.7535V47.864H17.2747V38.7535Z" fill="#FFD433"/>
<path fill-rule="evenodd" clip-rule="evenodd" d="M17.2747 38.7535V47.864H25.9794V38.7535C25.7151 39.0667 25.3468 39.4069 24.8913 39.7129C23.4297 40.6943 21.0697 41.3232 18.3628 39.5744C18.0058 39.3437 17.6427 39.0716 17.2747 38.7535ZM18.3628 40.8393V46.7762H24.8913V40.98C24.2979 41.2963 23.6147 41.5492 22.857 41.6758C21.492 41.9037 19.9582 41.7089 18.3628 40.8393Z" fill="#421769"/>
</svg>
