<svg width="42" height="48" viewBox="0 0 42 48" fill="none" xmlns="http://www.w3.org/2000/svg">
<g clip-path="url(#clip0_20_41502)">
<path d="M9.83217 30.0332C12.6458 24.1349 8.77644 21.0409 13.0868 21.0409L14.8644 21.2432C17.9808 21.598 20.3954 24.1181 20.4873 27.2525C20.5334 28.8242 20.5674 30.6791 20.5674 32.7349C20.5674 35.9437 19.1928 34.1846 11.8028 34.6068C11.1704 34.643 7.65038 34.6068 9.83217 30.0332Z" fill="#421769"/>
<path fill-rule="evenodd" clip-rule="evenodd" d="M11.0468 21.5348C11.3765 21.0962 12.0051 20.9049 13.0868 20.9049H13.0945L14.8798 21.1081C18.0605 21.4702 20.5292 24.0435 20.6233 27.2485C20.6694 28.8214 20.7034 30.6776 20.7034 32.7349C20.7034 33.5342 20.6209 34.0739 20.3416 34.4088C20.0548 34.7526 19.5937 34.8448 18.9579 34.8518C18.5553 34.8563 18.0578 34.8259 17.4548 34.789C17.1013 34.7674 16.7115 34.7436 16.2835 34.7233C15.1189 34.668 13.6522 34.6374 11.8106 34.7425C11.6455 34.752 11.2956 34.7566 10.897 34.6844C10.4997 34.6124 10.0429 34.4618 9.67471 34.1528C9.30205 33.8399 9.02984 33.3723 8.99488 32.6894C8.96021 32.0121 9.15879 31.1289 9.7094 29.9746C10.9916 27.2867 10.8698 25.1934 10.7828 23.6975C10.7755 23.5714 10.7684 23.4496 10.7624 23.3321C10.7432 22.9541 10.735 22.6125 10.7696 22.3151C10.8044 22.0168 10.8833 21.7522 11.0468 21.5348ZM11.0545 23.6835C11.1421 25.1855 11.2678 27.3395 9.95493 30.0917C9.41464 31.2244 9.23507 32.0606 9.26654 32.6754C9.29771 33.2844 9.53595 33.6812 9.84964 33.9445C10.1678 34.2116 10.5733 34.3493 10.9456 34.4168C11.3167 34.484 11.644 34.4797 11.7951 34.4711C13.6484 34.3652 15.1248 34.396 16.2963 34.4516C16.7371 34.4726 17.1322 34.4967 17.4871 34.5184C18.0805 34.5549 18.5613 34.5842 18.9547 34.5799C19.5864 34.5728 19.9308 34.4767 20.1327 34.2346C20.3421 33.9838 20.4314 33.5401 20.4314 32.7349C20.4314 30.6806 20.3974 28.8271 20.3513 27.2565C20.2614 24.1926 17.9011 21.7257 14.849 21.3782L13.0791 21.1769C12.0109 21.1778 11.5087 21.3731 11.2642 21.6982C11.1403 21.863 11.0715 22.075 11.0398 22.3467C11.008 22.6193 11.0149 22.9409 11.0341 23.3182C11.04 23.4354 11.0471 23.5571 11.0545 23.6835Z" fill="#421769"/>
<path d="M32.6087 30.0332C29.795 24.1349 33.6644 21.0409 29.3539 21.0409L27.5764 21.2432C24.46 21.598 22.0454 24.1181 21.9535 27.2525C21.9074 28.8242 21.8734 30.6791 21.8734 32.7349C21.8734 35.9437 23.248 34.1846 30.638 34.6068C31.2703 34.643 34.7904 34.6068 32.6087 30.0332Z" fill="#421769"/>
<path fill-rule="evenodd" clip-rule="evenodd" d="M31.3939 21.5348C31.0643 21.0962 30.4356 20.9049 29.3539 20.9049H29.3462L27.561 21.1081C24.3803 21.4702 21.9116 24.0435 21.8175 27.2485C21.7714 28.8214 21.7374 30.6776 21.7374 32.7349C21.7374 33.5342 21.8198 34.0739 22.0992 34.4088C22.386 34.7526 22.8471 34.8448 23.4829 34.8518C23.8855 34.8563 24.383 34.8259 24.986 34.789C25.3395 34.7674 25.7293 34.7436 26.1573 34.7233C27.3219 34.668 28.7885 34.6374 30.6302 34.7425C30.7954 34.752 31.1452 34.7566 31.5437 34.6844C31.9411 34.6124 32.398 34.4618 32.7662 34.1528C33.1387 33.8399 33.411 33.3723 33.4459 32.6894C33.4806 32.0121 33.282 31.1289 32.7313 29.9746C31.4492 27.2867 31.5709 25.1934 31.6579 23.6975C31.6653 23.5714 31.6724 23.4496 31.6783 23.3321C31.6977 22.9541 31.7058 22.6125 31.6711 22.3151C31.6365 22.0168 31.5574 21.7522 31.3939 21.5348ZM31.3863 23.6835C31.2986 25.1855 31.1729 27.3395 32.4858 30.0917C33.0262 31.2244 33.2057 32.0606 33.1743 32.6754C33.143 33.2844 32.9049 33.6812 32.5911 33.9445C32.273 34.2116 31.8675 34.3493 31.4953 34.4168C31.1241 34.484 30.7969 34.4797 30.6458 34.4711C28.7923 34.3652 27.316 34.396 26.1444 34.4516C25.7037 34.4726 25.3086 34.4967 24.9537 34.5184C24.3603 34.5549 23.8795 34.5842 23.4859 34.5799C22.8544 34.5728 22.51 34.4767 22.3081 34.2346C22.0988 33.9838 22.0094 33.5401 22.0094 32.7349C22.0094 30.6806 22.0434 28.8271 22.0894 27.2565C22.1794 24.1926 24.5397 21.7257 27.5918 21.3782L29.3617 21.1769C30.4299 21.1778 30.9321 21.3731 31.1766 21.6982C31.3005 21.863 31.3693 22.075 31.401 22.3467C31.4327 22.6193 31.4259 22.9409 31.4067 23.3182C31.4007 23.4354 31.3937 23.5571 31.3863 23.6835Z" fill="#421769"/>
<path d="M11.6144 16.4872H11.9125H12.7705V21.1105H11.9125H11.6144C10.3375 21.1105 9.30226 20.0755 9.30226 18.7989C9.30226 17.5222 10.3375 16.4872 11.6144 16.4872Z" fill="#FDBF87"/>
<path fill-rule="evenodd" clip-rule="evenodd" d="M13.3146 15.9434H11.6144C10.037 15.9434 8.75822 17.2218 8.75822 18.7989C8.75822 20.3759 10.037 21.6544 11.6144 21.6544H13.3146V15.9434ZM12.2265 17.0312V20.5666H11.6144C10.6379 20.5666 9.8463 19.7752 9.8463 18.7989C9.8463 17.8226 10.6379 17.0312 11.6144 17.0312H12.2265Z" fill="#421769"/>
<path d="M31.0639 16.4872H30.7659H29.9078V21.1105H30.7659H31.0639C32.3409 21.1105 33.376 20.0755 33.376 18.7989C33.376 17.5222 32.3409 16.4872 31.0639 16.4872Z" fill="#FDBF87"/>
<path fill-rule="evenodd" clip-rule="evenodd" d="M29.3637 15.9434H31.0638C32.6413 15.9434 33.9201 17.2218 33.9201 18.7989C33.9201 20.3759 32.6413 21.6544 31.0638 21.6544H29.3637V15.9434ZM30.4518 17.0312V20.5666H31.0638C32.0404 20.5666 32.832 19.7752 32.832 18.7989C32.832 17.8226 32.0404 17.0312 31.0638 17.0312H30.4518Z" fill="#421769"/>
<path d="M1.47989 47.3201C1.58796 37.3882 8.32145 34.2284 11.2936 33.2681C12.403 32.9097 13.9803 31.759 14.6515 31.2125L20.3878 47.3201H1.47989Z" fill="#421769"/>
<path fill-rule="evenodd" clip-rule="evenodd" d="M14.9056 30.3042L14.3081 30.7907C13.9858 31.053 13.4393 31.4656 12.8404 31.8547C12.2325 32.2496 11.6101 32.5942 11.1263 32.7506C9.59369 33.2457 7.07432 34.3124 4.92047 36.5528C2.75451 38.8058 0.991381 42.2121 0.935861 47.3141L0.929878 47.864H21.1589L14.9056 30.3042ZM14.3907 32.1014L19.6166 46.7762H2.03699C2.20442 42.2563 3.80989 39.2779 5.70493 37.3066C7.68787 35.244 10.0213 34.2507 11.4609 33.7856C12.0865 33.5834 12.8073 33.1736 13.4333 32.7669C13.7785 32.5427 14.1068 32.3114 14.3907 32.1014Z" fill="#421769"/>
<path d="M10.595 37.8081L12.9183 33.1955L20.9318 32.6346V47.0833L10.595 42.0869L14.6753 39.8336L10.595 37.8081Z" fill="white"/>
<path d="M21.2038 22.3003H13.8821C14.637 24.8159 15.5594 30.3206 13.0432 32.4733C13.0432 32.4733 16.3976 38.4808 18.4375 42.2529C19.123 43.5204 19.5366 46.2335 20.1157 47.3201C20.9318 47.3201 21.2038 47.3201 21.2038 47.3201V42.2529V22.3003Z" fill="#FDBF87"/>
<path fill-rule="evenodd" clip-rule="evenodd" d="M14.5393 22.3003C14.5393 22.5941 14.5597 22.9232 14.5929 23.2826C14.633 23.7124 14.6921 24.1825 14.7569 24.6857C14.7643 24.7422 14.7716 24.799 14.779 24.8563C14.8902 25.7166 15.0114 26.6529 15.0627 27.5743C15.1621 29.3594 15.016 31.2891 13.8293 32.5698C13.9073 32.7451 14.0141 32.9825 14.1453 33.2692C14.4421 33.9175 14.8643 34.8171 15.3652 35.8215C16.3715 37.8392 17.6794 40.2464 18.9186 41.8964C19.6196 42.8295 19.9388 44.2249 20.0933 45.3058C20.1726 45.8605 20.212 46.3612 20.2317 46.7232C20.2328 46.7413 20.2337 46.7589 20.2346 46.7762H21.2038V47.864H19.1637V47.3201V47.3192V47.3132C19.1635 47.3076 19.1635 47.2989 19.1634 47.2871C19.1631 47.2636 19.1626 47.2278 19.1614 47.1812C19.1592 47.088 19.1545 46.9518 19.1453 46.7825C19.1268 46.4435 19.0898 45.9754 19.0161 45.4597C18.8646 44.3995 18.5717 43.2461 18.0485 42.5495C16.7461 40.8155 15.4018 38.333 14.3913 36.3069C13.8839 35.2894 13.4565 34.3785 13.1559 33.722C13.0055 33.3936 12.8868 33.1286 12.8055 32.9453C12.7649 32.8536 12.7336 32.7825 12.7124 32.734C12.7018 32.7098 12.6937 32.6911 12.6882 32.6786L12.6798 32.6592C12.6798 32.6592 12.6797 32.659 13.1792 32.4434L12.6797 32.659L12.5221 32.2941L12.822 32.033C13.8284 31.1574 14.0604 29.554 13.9592 27.6222C13.9122 26.7225 13.797 25.8036 13.6867 24.9233C13.6815 24.882 13.6763 24.8408 13.6712 24.7997C13.61 24.3113 13.5507 23.8306 13.5091 23.3783C13.4737 22.9969 13.4512 22.6337 13.4512 22.3003H14.5393Z" fill="#421769"/>
<path d="M40.7917 47.3201C40.6836 37.3882 33.9501 34.2284 30.978 33.2681C29.8686 32.9097 28.2913 31.759 27.6199 31.2125L21.8839 47.3201H40.7917Z" fill="#421769"/>
<path fill-rule="evenodd" clip-rule="evenodd" d="M27.366 30.3042L27.9635 30.7907C28.2858 31.053 28.8323 31.4656 29.4312 31.8547C30.039 32.2496 30.6615 32.5942 31.1453 32.7506C32.6779 33.2457 35.1972 34.3124 37.3512 36.5528C39.517 38.8058 41.2802 42.2121 41.3357 47.3141L41.3417 47.864H21.1127L27.366 30.3042ZM27.8809 32.1014L22.655 46.7762H40.2346C40.0672 42.2563 38.4617 39.2779 36.5667 37.3066C34.5837 35.244 32.2503 34.2507 30.8107 33.7856C30.1851 33.5834 29.4642 33.1736 28.8383 32.7669C28.4931 32.5427 28.1648 32.3114 27.8809 32.1014Z" fill="#421769"/>
<path d="M31.6766 37.8081L29.3533 33.1955L21.3398 32.6346V47.0833L31.6766 42.0869L27.5963 39.8336L31.6766 37.8081Z" fill="white"/>
<path d="M21.0678 22.3003H28.3895C27.6345 24.8159 26.7122 30.3206 29.2284 32.4733C29.2284 32.4733 25.874 38.4808 23.8341 42.2529C23.1486 43.5204 22.735 46.2335 22.1559 47.3201C21.3398 47.3201 21.0678 47.3201 21.0678 47.3201V42.2529V22.3003Z" fill="#FDBF87"/>
<path fill-rule="evenodd" clip-rule="evenodd" d="M27.7323 22.3003C27.7323 22.5941 27.7119 22.9232 27.6787 23.2826C27.6386 23.7124 27.5795 24.1825 27.5147 24.6857C27.5073 24.7422 27.5 24.799 27.4926 24.8563C27.3812 25.7166 27.2602 26.6529 27.2089 27.5743C27.1095 29.3594 27.2554 31.2891 28.4423 32.5698C28.3642 32.7451 28.2576 32.9825 28.1263 33.2692C27.8295 33.9175 27.4074 34.8171 26.9064 35.8215C25.9001 37.8392 24.5922 40.2464 23.353 41.8964C22.652 42.8295 22.3328 44.2249 22.1783 45.3058C22.099 45.8605 22.0596 46.3612 22.0397 46.7232C22.0388 46.7413 22.0378 46.7589 22.037 46.7762H21.0678V47.864H23.1079V47.3201V47.3192V47.3132C23.1079 47.3076 23.1081 47.2989 23.1082 47.2871C23.1085 47.2636 23.109 47.2278 23.1101 47.1812C23.1124 47.088 23.1171 46.9518 23.1263 46.7825C23.1448 46.4435 23.1818 45.9754 23.2555 45.4597C23.407 44.3995 23.6999 43.2461 24.2231 42.5495C25.5255 40.8155 26.8697 38.333 27.8803 36.3069C28.3877 35.2894 28.8151 34.3785 29.1156 33.722C29.2661 33.3936 29.3848 33.1286 29.466 32.9453C29.5067 32.8536 29.538 32.7825 29.5592 32.734C29.5698 32.7098 29.5779 32.6911 29.5834 32.6786L29.5918 32.6592C29.5918 32.6592 29.5918 32.659 29.0924 32.4434L29.5918 32.659L29.7494 32.2941L29.4495 32.033C28.4432 31.1574 28.2112 29.554 28.3124 27.6222C28.3594 26.7225 28.4746 25.8036 28.5849 24.9233C28.5901 24.882 28.5953 24.8408 28.6004 24.7997C28.6615 24.3113 28.7208 23.8306 28.7624 23.3783C28.7979 22.9969 28.8204 22.6337 28.8204 22.3003H27.7323Z" fill="#421769"/>
<path d="M30.5198 19.4448V17.6771C30.5198 12.5704 26.379 8.4306 21.2711 8.4306C16.1633 8.4306 12.0225 12.5704 12.0225 17.6771V19.4448C12.0225 24.5514 16.1633 28.6912 21.2711 28.6912C26.379 28.6912 30.5198 24.5514 30.5198 19.4448Z" fill="#FDBF87"/>
<path fill-rule="evenodd" clip-rule="evenodd" d="M21.2711 8.97448C16.4637 8.97448 12.5665 12.8707 12.5665 17.677V19.4447C12.5665 24.251 16.4637 28.1473 21.2711 28.1473C26.0785 28.1473 29.9758 24.251 29.9758 19.4447V17.677C29.9758 12.8707 26.0785 8.97448 21.2711 8.97448ZM11.4784 17.677C11.4784 12.27 15.8627 7.88666 21.2711 7.88666C26.6794 7.88666 31.0639 12.27 31.0639 17.677V19.4447C31.0639 24.8519 26.6794 29.2351 21.2711 29.2351C15.8627 29.2351 11.4784 24.8519 11.4784 19.4447V17.677Z" fill="#421769"/>
<path fill-rule="evenodd" clip-rule="evenodd" d="M19.775 22.7082C19.9253 22.7082 20.047 22.8299 20.047 22.9801C20.047 23.8813 20.7778 24.6119 21.6792 24.6119C22.1654 24.6119 22.6019 24.3996 22.9012 24.0617C23.0009 23.9494 23.1728 23.9389 23.2852 24.0386C23.3977 24.1383 23.408 24.3101 23.3084 24.4225C22.9101 24.8719 22.3277 25.1558 21.6792 25.1558C20.4772 25.1558 19.503 24.1818 19.503 22.9801C19.503 22.8299 19.6247 22.7082 19.775 22.7082Z" fill="#421769"/>
<path d="M21.2233 10.7803C22.9785 15.7611 28.2578 16.6492 31.6513 16.421C32.4573 16.3669 33.0564 15.6929 33.0943 14.8863C33.3188 10.1078 32.9041 5.94962 32.0585 4.5732C29.8452 0.97072 23.6818 -0.643286 21.3306 0.44503L21.3283 0.446062C21.1957 0.507453 21.046 0.576688 21.0145 0.719151C20.9322 1.09038 21.1351 1.94298 21.1351 2.29502V10.2428C21.1351 10.4248 21.1627 10.6087 21.2233 10.7803Z" fill="#421769"/>
<path d="M21.0451 10.7828C19.2666 15.7679 13.9169 16.6514 10.4859 16.4202C9.67917 16.3658 9.07823 15.6921 9.03989 14.8846C8.81301 10.1069 9.23244 5.94947 10.0876 4.57321C12.327 0.968978 18.5655 -0.644846 20.9409 0.44661L20.9469 0.449361C21.0777 0.509459 21.2245 0.576856 21.2564 0.716654C21.3412 1.08654 21.1351 1.94219 21.1351 2.29502V10.2399C21.1351 10.4238 21.1068 10.6095 21.0451 10.7828Z" fill="#421769"/>
<path d="M16.7828 38.7535C20.8087 42.2346 24.2634 40.204 25.4874 38.7535V47.864H16.7828V38.7535Z" fill="#FFD433"/>
<path fill-rule="evenodd" clip-rule="evenodd" d="M16.7828 38.7535V47.864H25.4874V38.7535C25.2232 39.0667 24.8549 39.4069 24.3994 39.7129C22.9378 40.6943 20.5778 41.3232 17.8709 39.5744C17.5139 39.3437 17.1507 39.0716 16.7828 38.7535ZM17.8709 40.8393V46.7762H24.3994V40.98C23.806 41.2963 23.1228 41.5492 22.3651 41.6758C21.0001 41.9037 19.4663 41.7089 17.8709 40.8393Z" fill="#421769"/>
</g>
<defs>
<clipPath id="clip0_20_41502">
<rect width="41" height="48" fill="white" transform="translate(0.817543)"/>
</clipPath>
</defs>
</svg>
