<svg width="40" height="48" viewBox="0 0 40 48" fill="none" xmlns="http://www.w3.org/2000/svg">
<g clip-path="url(#clip0_20_41499)">
<path d="M11.0581 18.336H11.3385H12.1458V22.688H11.3385H11.0581C9.85657 22.688 8.88257 21.7138 8.88257 20.512C8.88257 19.3102 9.85657 18.336 11.0581 18.336Z" fill="#FDBF87"/>
<path fill-rule="evenodd" clip-rule="evenodd" d="M12.6577 17.824H11.0581C9.57387 17.824 8.3707 19.0274 8.3707 20.512C8.3707 21.9965 9.57387 23.2 11.0581 23.2H12.6577V17.824ZM11.6339 18.848V22.176H11.0581C10.1393 22.176 9.39445 21.431 9.39445 20.512C9.39445 19.5929 10.1393 18.848 11.0581 18.848H11.6339Z" fill="#421769"/>
<path d="M29.3577 18.336H29.0773H28.27V22.688H29.0773H29.3577C30.5592 22.688 31.5332 21.7138 31.5332 20.512C31.5332 19.3102 30.5592 18.336 29.3577 18.336Z" fill="#FDBF87"/>
<path fill-rule="evenodd" clip-rule="evenodd" d="M27.7581 17.824H29.3577C30.8419 17.824 32.0451 19.0274 32.0451 20.512C32.0451 21.9965 30.8419 23.2 29.3577 23.2H27.7581V17.824ZM28.7818 18.848V22.176H29.3577C30.2765 22.176 31.0213 21.431 31.0213 20.512C31.0213 19.5929 30.2765 18.848 29.3577 18.848H28.7818Z" fill="#421769"/>
<path d="M1.52263 47.36C1.62432 38.0108 7.95974 35.0363 10.7562 34.1324C11.8 33.795 13.2841 32.7118 13.9156 32.1974L19.3127 47.36H1.52263Z" fill="#421769"/>
<path fill-rule="evenodd" clip-rule="evenodd" d="M14.1547 31.3423L13.5925 31.8003C13.2892 32.0472 12.7751 32.4356 12.2116 32.8019C11.6396 33.1736 11.054 33.498 10.5988 33.6452C9.15678 34.1112 6.78635 35.1154 4.75982 37.2243C2.72191 39.3452 1.06301 42.5517 1.01077 47.3544L1.00514 47.872H20.0383L14.1547 31.3423ZM13.6702 33.0341L18.5871 46.848H2.0468C2.20433 42.5933 3.7149 39.7896 5.49791 37.934C7.36363 35.9923 9.55913 35.0573 10.9136 34.6195C11.5022 34.4292 12.1804 34.0434 12.7694 33.6606C13.0942 33.4495 13.4031 33.2318 13.6702 33.0341Z" fill="#421769"/>
<path d="M10.0989 38.406L12.2849 34.064L19.8246 33.536V47.137L10.0989 42.4338L13.938 40.3127L10.0989 38.406Z" fill="white"/>
<path d="M20.0805 23.808H13.1917C13.9019 26.176 14.7698 31.3578 12.4024 33.3842C12.4024 33.3842 15.5585 39.0392 17.4778 42.5901C18.1227 43.7831 18.5119 46.3371 19.0568 47.36C19.8246 47.36 20.0805 47.36 20.0805 47.36V42.5901V23.808Z" fill="#FDBF87"/>
<path fill-rule="evenodd" clip-rule="evenodd" d="M13.81 23.808C13.81 24.0846 13.8292 24.3944 13.8605 24.7327C13.8982 25.1373 13.9537 25.5798 14.0148 26.0535C14.0217 26.1066 14.0286 26.1601 14.0355 26.214C14.1402 27.0239 14.2542 27.9053 14.3025 28.7726C14.396 30.453 14.2586 32.2694 13.142 33.4751C13.2154 33.64 13.3158 33.8635 13.4393 34.1334C13.7185 34.7437 14.1158 35.5905 14.5871 36.5359C15.5339 38.4353 16.7645 40.7013 17.9304 42.2544C18.59 43.1328 18.8903 44.4463 19.0357 45.4638C19.1103 45.986 19.1474 46.4573 19.1659 46.7981C19.167 46.8151 19.1677 46.8317 19.1686 46.848H20.0805V47.872H18.161V47.36V47.3591V47.3535C18.1609 47.3482 18.1609 47.34 18.1607 47.3289C18.1605 47.3067 18.16 47.2731 18.1588 47.2292C18.1568 47.1415 18.1524 47.0132 18.1437 46.8539C18.1263 46.5348 18.0915 46.0942 18.0222 45.6087C17.8796 44.6107 17.6041 43.525 17.1118 42.8692C15.8863 41.237 14.6215 38.9001 13.6708 36.9929C13.1933 36.0351 12.7912 35.1776 12.5084 34.5596C12.3669 34.2505 12.2552 34.001 12.1787 33.8285C12.1405 33.7422 12.1111 33.6752 12.0911 33.6295C12.0811 33.6068 12.0735 33.5892 12.0684 33.5775L12.0604 33.5592C12.0604 33.5592 12.0604 33.559 12.5303 33.356L12.0604 33.559L11.912 33.2155L12.1943 32.9697C13.1412 32.1455 13.3595 30.6361 13.2642 28.8176C13.2199 27.9708 13.1116 27.1058 13.0078 26.2771C13.0029 26.2382 12.998 26.1994 12.9932 26.1608C12.9357 25.701 12.8799 25.2485 12.8407 24.8228C12.8074 24.4637 12.7863 24.1218 12.7863 23.808H13.81Z" fill="#421769"/>
<path d="M38.5105 47.36C38.4087 38.0108 32.0733 35.0363 29.277 34.1324C28.2331 33.795 26.749 32.7118 26.1174 32.1974L20.7204 47.36H38.5105Z" fill="#421769"/>
<path fill-rule="evenodd" clip-rule="evenodd" d="M25.8785 31.3423L26.4406 31.8003C26.7439 32.0472 27.2581 32.4356 27.8216 32.8019C28.3935 33.1736 28.9792 33.498 29.4344 33.6452C30.8763 34.1112 33.2467 35.1154 35.2733 37.2243C37.3111 39.3452 38.9701 42.5517 39.0223 47.3544L39.028 47.872H19.9948L25.8785 31.3423ZM26.363 33.0341L21.446 46.848H37.9863C37.8288 42.5933 36.3182 39.7896 34.5352 37.934C32.6694 35.9923 30.474 35.0573 29.1196 34.6195C28.5309 34.4292 27.8527 34.0434 27.2637 33.6606C26.9389 33.4495 26.63 33.2318 26.363 33.0341Z" fill="#421769"/>
<path d="M29.9342 38.406L27.7482 34.064L20.2085 33.536V47.137L29.9342 42.4338L26.0951 40.3127L29.9342 38.406Z" fill="white"/>
<path d="M19.9526 23.808H26.8414C26.1311 26.176 25.2633 31.3578 27.6307 33.3842C27.6307 33.3842 24.4746 39.0392 22.5553 42.5901C21.9104 43.7831 21.5212 46.3371 20.9763 47.36C20.2085 47.36 19.9526 47.36 19.9526 47.36V42.5901V23.808Z" fill="#FDBF87"/>
<path fill-rule="evenodd" clip-rule="evenodd" d="M26.2231 23.808C26.2231 24.0846 26.2039 24.3944 26.1727 24.7327C26.1349 25.1373 26.0794 25.5798 26.0183 26.0535C26.0114 26.1066 26.0045 26.1601 25.9976 26.214C25.8928 27.0239 25.7789 27.9053 25.7307 28.7726C25.6371 30.453 25.7744 32.2694 26.8911 33.4751C26.8176 33.64 26.7173 33.8635 26.5938 34.1334C26.3146 34.7437 25.9174 35.5905 25.4461 36.5359C24.4992 38.4353 23.2687 40.7013 22.1027 42.2544C21.4432 43.1328 21.1428 44.4463 20.9974 45.4638C20.9228 45.986 20.8857 46.4573 20.867 46.7981C20.8661 46.8151 20.8653 46.8317 20.8645 46.848H19.9526V47.872H21.8721V47.36V47.3591V47.3535C21.8721 47.3482 21.8722 47.34 21.8724 47.3289C21.8726 47.3067 21.8731 47.2731 21.8742 47.2292C21.8763 47.1415 21.8807 47.0132 21.8894 46.8539C21.9068 46.5348 21.9416 46.0942 22.011 45.6087C22.1535 44.6107 22.429 43.525 22.9213 42.8692C24.1468 41.237 25.4115 38.9001 26.3623 36.9929C26.8398 36.0351 27.2418 35.1776 27.5247 34.5596C27.6662 34.2505 27.7779 34.001 27.8543 33.8285C27.8926 33.7422 27.922 33.6752 27.942 33.6295C27.952 33.6068 27.9596 33.5892 27.9647 33.5775L27.9727 33.5592C27.9727 33.5592 27.9727 33.559 27.5028 33.356L27.9727 33.559L28.121 33.2155L27.8388 32.9697C26.892 32.1455 26.6737 30.6361 26.7689 28.8176C26.8132 27.9708 26.9215 27.1058 27.0253 26.2771C27.0302 26.2382 27.035 26.1994 27.0399 26.1608C27.0974 25.701 27.1532 25.2485 27.1923 24.8228C27.2257 24.4637 27.2468 24.1218 27.2468 23.808H26.2231Z" fill="#421769"/>
<path d="M28.8458 21.12V19.456C28.8458 14.649 24.9498 10.752 20.1439 10.752C15.338 10.752 11.442 14.649 11.442 19.456V21.12C11.442 25.9271 15.338 29.824 20.1439 29.824C24.9498 29.824 28.8458 25.9271 28.8458 21.12Z" fill="#FDBF87"/>
<path fill-rule="evenodd" clip-rule="evenodd" d="M20.1439 11.264C15.6207 11.264 11.9538 14.9317 11.9538 19.456V21.12C11.9538 25.6443 15.6207 29.312 20.1439 29.312C24.6671 29.312 28.3339 25.6443 28.3339 21.12V19.456C28.3339 14.9317 24.6671 11.264 20.1439 11.264ZM10.9301 19.456C10.9301 14.3662 15.0552 10.24 20.1439 10.24C25.2325 10.24 29.3577 14.3662 29.3577 19.456V21.12C29.3577 26.2099 25.2325 30.336 20.1439 30.336C15.0552 30.336 10.9301 26.2099 10.9301 21.12V19.456Z" fill="#421769"/>
<path fill-rule="evenodd" clip-rule="evenodd" d="M18.7362 24.192C18.8776 24.192 18.9922 24.3066 18.9922 24.448C18.9922 25.2963 19.6797 25.984 20.5278 25.984C20.9853 25.984 21.3959 25.7842 21.6776 25.4661C21.7714 25.3604 21.9332 25.3505 22.0389 25.4444C22.1447 25.5382 22.1544 25.7 22.0607 25.8057C21.6859 26.2288 21.138 26.496 20.5278 26.496C19.3969 26.496 18.4803 25.5792 18.4803 24.448C18.4803 24.3066 18.5948 24.192 18.7362 24.192Z" fill="#421769"/>
<path fill-rule="evenodd" clip-rule="evenodd" d="M18.0017 18.1611H14.2573V21.8017H18.0017V18.1611ZM14.2573 17.1371C13.6919 17.1371 13.2335 17.5955 13.2335 18.1611V21.8017C13.2335 22.3672 13.6919 22.8257 14.2573 22.8257H18.0017C18.567 22.8257 19.0254 22.3672 19.0254 21.8017V18.1611C19.0254 17.5956 18.567 17.1371 18.0017 17.1371H14.2573Z" fill="#421769"/>
<path fill-rule="evenodd" clip-rule="evenodd" d="M21.5596 20.4934H19.0254V19.4694H21.5596V20.4934Z" fill="#421769"/>
<path fill-rule="evenodd" clip-rule="evenodd" d="M26.3278 18.1611H22.5834V21.8017H26.3278V18.1611ZM22.5834 17.1371C22.018 17.1371 21.5596 17.5955 21.5596 18.1611V21.8017C21.5596 22.3672 22.018 22.8257 22.5834 22.8257H26.3278C26.8933 22.8257 27.3515 22.3672 27.3515 21.8017V18.1611C27.3515 17.5956 26.8933 17.1371 26.3278 17.1371H22.5834Z" fill="#421769"/>
<path d="M20.3984 13.1771C22.616 15.3335 26.9041 17.8254 29.8413 18.1428C30.597 18.2245 31.1685 17.5882 31.2042 16.8289C31.4153 12.3308 31.0252 8.41655 30.2296 7.12088C28.1471 3.72975 22.348 2.21043 20.1358 3.23489L20.1337 3.23587C20.0089 3.29366 19.8681 3.35884 19.8384 3.49294C19.761 3.84238 19.9519 4.64497 19.9519 4.97636V12.0738C19.9519 12.4873 20.1021 12.8888 20.3984 13.1771Z" fill="#421769"/>
<path d="M25.6458 3.264C25.6458 5.06666 27.0903 6.528 28.8723 6.528C30.6543 6.528 32.0989 5.06666 32.0989 3.264C32.0989 1.46134 30.6543 0 28.8723 0C27.0903 0 25.6458 1.46134 25.6458 3.264Z" fill="#421769"/>
<path fill-rule="evenodd" clip-rule="evenodd" d="M25.7277 3.35751C25.4613 3.45209 25.3219 3.7448 25.4165 4.01128C25.896 5.36253 26.638 6.13604 27.4503 6.50599C28.2494 6.86988 29.0492 6.81236 29.6019 6.63033C29.8703 6.54189 30.0164 6.25247 29.9279 5.98388C29.8396 5.7153 29.5502 5.56926 29.2817 5.65771C28.9276 5.77434 28.3988 5.81282 27.8745 5.57405C27.3636 5.34133 26.7876 4.81351 26.3813 3.66876C26.2867 3.40227 25.9941 3.26293 25.7277 3.35751Z" fill="#FFD433"/>
<path d="M19.5629 13.1783C17.3165 15.3376 12.9716 17.8326 10.0013 18.1442C9.2447 18.2236 8.6718 17.5874 8.63572 16.8274C8.42225 12.3299 8.81689 8.41641 9.62147 7.12088C11.7285 3.7281 17.5982 2.20896 19.8332 3.23639L19.8388 3.23897C19.9619 3.29555 20.1 3.35899 20.1301 3.49058C20.2098 3.83877 20.0159 4.64422 20.0159 4.97636V12.0684C20.0159 12.4851 19.8634 12.8896 19.5629 13.1783Z" fill="#421769"/>
<path d="M14.2573 3.264C14.2573 5.06666 12.7963 6.528 10.9941 6.528C9.19184 6.528 7.73085 5.06666 7.73085 3.264C7.73085 1.46134 9.19184 0 10.9941 0C12.7963 0 14.2573 1.46134 14.2573 3.264Z" fill="#421769"/>
<path fill-rule="evenodd" clip-rule="evenodd" d="M14.1744 3.35813C14.4404 3.45367 14.5786 3.74686 14.4832 4.013C13.9978 5.36549 13.2471 6.13799 12.4279 6.50689C11.6225 6.86958 10.8166 6.81221 10.2598 6.63087C9.99094 6.54333 9.84397 6.2544 9.93149 5.98551C10.019 5.71663 10.3079 5.56964 10.5767 5.65718C10.937 5.7745 11.4747 5.81313 12.0077 5.57316C12.5268 5.33939 13.1092 4.81054 13.5195 3.66703C13.6151 3.40089 13.9082 3.26259 14.1744 3.35813Z" fill="#FFD433"/>
<path d="M15.9209 39.296C19.7088 42.5728 22.9592 40.6614 24.1109 39.296V47.872H15.9209V39.296Z" fill="#FFD433"/>
<path fill-rule="evenodd" clip-rule="evenodd" d="M15.9209 39.296V47.872H24.1109V39.296C23.8623 39.5908 23.5158 39.9111 23.0872 40.1991C21.712 41.123 19.4915 41.715 16.9447 40.0688C16.6087 39.8515 16.2671 39.5954 15.9209 39.296ZM16.9447 41.2594V46.848H23.0872V41.3919C22.5289 41.6896 21.8861 41.9277 21.1732 42.0469C19.8888 42.2614 18.4457 42.078 16.9447 41.2594Z" fill="#421769"/>
</g>
<defs>
<clipPath id="clip0_20_41499">
<rect width="39.1587" height="48" fill="white" transform="translate(0.436584)"/>
</clipPath>
</defs>
</svg>
