<svg width="38" height="48" viewBox="0 0 38 48" fill="none" xmlns="http://www.w3.org/2000/svg">
<path d="M2.69622 26.7446C2.979 20.9556 6.74193 18.1818 11.3311 18.6039L12.3971 18.7676C13.7371 18.9735 14.9773 19.6365 15.6903 20.7881C16.7826 22.5523 18.1832 25.5317 17.9733 28.9757C17.9733 32.7747 14.0886 33.9204 12.5388 34.1616C4.56812 36.5134 2.5352 30.0411 2.69622 26.7446Z" fill="#421769"/>
<path fill-rule="evenodd" clip-rule="evenodd" d="M5.31888 20.2547C6.89763 18.8647 9.02032 18.2703 11.3421 18.4839L11.3458 18.4841L12.4154 18.6485C13.7812 18.8583 15.057 19.5359 15.7931 20.7247C16.891 22.498 18.3049 25.5013 18.094 28.9795C18.0927 30.9261 17.0937 32.1951 15.9051 33.0026C14.724 33.805 13.3514 34.1563 12.5653 34.2796C10.5605 34.8699 8.91899 34.909 7.58622 34.5754C6.25078 34.2412 5.23325 33.5349 4.47626 32.6495C2.96623 30.8834 2.49405 28.4078 2.57558 26.7388C2.71822 23.8187 3.73984 21.6447 5.31888 20.2547ZM5.47861 20.4356C3.95821 21.774 2.95698 23.8814 2.81684 26.7505C2.73734 28.3779 3.20112 30.7867 4.65995 32.4929C5.38738 33.3437 6.36251 34.0205 7.64494 34.3415C8.92835 34.6626 10.5275 34.6293 12.5045 34.046L12.5122 34.0437L12.5202 34.0425C13.2852 33.9235 14.6245 33.5809 15.7693 32.8032C16.9097 32.0283 17.8525 30.8259 17.8525 28.9757V28.9721L17.8527 28.9685C18.0605 25.5599 16.6739 22.6061 15.5876 20.8515C14.8976 19.737 13.693 19.0888 12.3787 18.8869L11.3163 18.7236C9.05045 18.5161 6.99848 19.0975 5.47861 20.4356Z" fill="#421769"/>
<path d="M34.4099 26.7446C34.1272 20.9556 30.3642 18.1818 25.7751 18.6039L24.7091 18.7676C23.369 18.9735 22.1289 19.6365 21.4157 20.7881C20.3235 22.5523 18.923 25.5317 19.1329 28.9757C19.1329 32.7747 23.0176 33.9204 24.5674 34.1616C32.538 36.5134 34.5709 30.0411 34.4099 26.7446Z" fill="#421769"/>
<path fill-rule="evenodd" clip-rule="evenodd" d="M31.7872 20.2547C30.2085 18.8647 28.0858 18.2703 25.7639 18.4839L25.7603 18.4841L24.6907 18.6485C23.3249 18.8583 22.0492 19.5359 21.3131 20.7247C20.2152 22.498 18.8012 25.5013 19.0121 28.9795C19.0134 30.9261 20.0124 32.1951 21.201 33.0026C22.3821 33.805 23.7547 34.1563 24.5408 34.2796C26.5457 34.8699 28.1871 34.909 29.5199 34.5754C30.8554 34.2412 31.8728 33.5349 32.6299 32.6495C34.1399 30.8834 34.6121 28.4078 34.5305 26.7388C34.3879 23.8187 33.3664 21.6447 31.7872 20.2547ZM31.6276 20.4356C33.1479 21.774 34.1492 23.8814 34.2893 26.7505C34.3688 28.3779 33.905 30.7867 32.4462 32.4929C31.7187 33.3437 30.7437 34.0205 29.4612 34.3415C28.1778 34.6626 26.5786 34.6293 24.6017 34.046L24.594 34.0437L24.586 34.0425C23.8209 33.9235 22.4816 33.5809 21.3369 32.8032C20.1965 32.0283 19.2536 30.8259 19.2536 28.9757V28.9721L19.2534 28.9685C19.0457 25.5599 20.4322 22.6061 21.5185 20.8515C22.2086 19.737 23.4131 19.0888 24.7274 18.8869L25.7898 18.7236C28.0556 18.5161 30.1077 19.0975 31.6276 20.4356Z" fill="#421769"/>
<path d="M10.0237 14.6231H10.2883H11.0502V18.7236H10.2883H10.0237C8.8898 18.7236 7.97062 17.8057 7.97062 16.6734C7.97062 15.541 8.8898 14.6231 10.0237 14.6231Z" fill="#FDBF87"/>
<path fill-rule="evenodd" clip-rule="evenodd" d="M11.5333 14.1407H10.0237C8.62301 14.1407 7.48756 15.2746 7.48756 16.6734C7.48756 18.0721 8.62301 19.206 10.0237 19.206H11.5333V14.1407ZM10.5671 15.1055V18.2412H10.0237C9.15659 18.2412 8.45369 17.5393 8.45369 16.6734C8.45369 15.8074 9.15659 15.1055 10.0237 15.1055H10.5671Z" fill="#421769"/>
<path d="M27.2933 14.6231H27.0287H26.2668V18.7236H27.0287H27.2933C28.4272 18.7236 29.3464 17.8057 29.3464 16.6734C29.3464 15.541 28.4272 14.6231 27.2933 14.6231Z" fill="#FDBF87"/>
<path fill-rule="evenodd" clip-rule="evenodd" d="M25.7838 14.1407H27.2933C28.694 14.1407 29.8294 15.2746 29.8294 16.6734C29.8294 18.0721 28.694 19.206 27.2933 19.206H25.7838V14.1407ZM26.7499 15.1055V18.2412H27.2933C28.1604 18.2412 28.8633 17.5393 28.8633 16.6734C28.8633 15.8074 28.1604 15.1055 27.2933 15.1055H26.7499Z" fill="#421769"/>
<path d="M1.14569 47.397C1.24165 38.588 7.2205 35.7855 9.85955 34.9338C10.8446 34.6158 12.2452 33.5953 12.8412 33.1106L17.9345 47.397H1.14569Z" fill="white"/>
<path fill-rule="evenodd" clip-rule="evenodd" d="M13.0667 32.305L12.5362 32.7365C12.25 32.9691 11.7648 33.335 11.233 33.6802C10.6933 34.0304 10.1406 34.336 9.71098 34.4747C8.35016 34.9138 6.11314 35.86 4.20068 37.847C2.27746 39.8453 0.711932 42.8665 0.662634 47.3917L0.657322 47.8794H18.6193L13.0667 32.305ZM12.6095 33.899L17.2498 46.9146H1.64035C1.78902 42.9057 3.21456 40.264 4.89722 38.5157C6.65793 36.6862 8.72986 35.8052 10.0081 35.3928C10.5636 35.2134 11.2036 34.8499 11.7594 34.4892C12.066 34.2903 12.3575 34.0852 12.6095 33.899Z" fill="#421769"/>
<path d="M9.23927 38.9916L11.3022 34.9004L18.4176 34.403V47.2179L9.23927 42.7866L12.8623 40.7881L9.23927 38.9916Z" fill="#421769"/>
<path d="M18.6591 25.206H12.158C12.8282 27.4372 13.6473 32.3196 11.4131 34.2288C11.4131 34.2288 14.3916 39.5571 16.2028 42.9027C16.8115 44.0268 17.1787 46.4332 17.693 47.397C18.4176 47.397 18.6591 47.397 18.6591 47.397V42.9027V25.206Z" fill="#FDBF87"/>
<path fill-rule="evenodd" clip-rule="evenodd" d="M12.7415 25.206C12.7415 25.4666 12.7596 25.7585 12.7891 26.0773C12.8247 26.4585 12.8771 26.8754 12.9348 27.3218C12.9413 27.3718 12.9478 27.4222 12.9543 27.473C13.0531 28.2361 13.1607 29.0665 13.2062 29.8837C13.2945 31.467 13.1648 33.1785 12.111 34.3144C12.1803 34.4699 12.2751 34.6805 12.3917 34.9347C12.6552 35.5097 13.03 36.3077 13.4748 37.1984C14.3684 38.9881 15.5297 41.1231 16.63 42.5865C17.2524 43.4141 17.5359 44.6517 17.673 45.6104C17.7435 46.1024 17.7785 46.5465 17.796 46.8675C17.797 46.8836 17.7977 46.8993 17.7985 46.9146H18.6591V47.8794H16.8476V47.397V47.3961V47.3908C16.8475 47.3859 16.8475 47.3782 16.8474 47.3677C16.8471 47.3468 16.8466 47.3151 16.8455 47.2737C16.8436 47.1911 16.8395 47.0703 16.8313 46.9201C16.8149 46.6195 16.782 46.2043 16.7166 45.7469C16.582 44.8065 16.322 43.7836 15.8574 43.1657C14.701 41.6278 13.5073 39.426 12.6101 37.629C12.1595 36.7265 11.78 35.9186 11.5131 35.3363C11.3796 35.0451 11.2742 34.81 11.202 34.6474C11.1659 34.5661 11.1382 34.5031 11.1193 34.46C11.1099 34.4385 11.1027 34.422 11.0979 34.4109L11.0904 34.3937C11.0904 34.3937 11.0903 34.3936 11.5338 34.2023L11.0903 34.3936L10.9503 34.0699L11.2167 33.8383C12.1103 33.0617 12.3163 31.6396 12.2265 29.9262C12.1847 29.1283 12.0824 28.3132 11.9844 27.5325C11.9798 27.4958 11.9752 27.4592 11.9707 27.4228C11.9164 26.9896 11.8637 26.5633 11.8268 26.1622C11.7953 25.8239 11.7754 25.5017 11.7754 25.206H12.7415Z" fill="#421769"/>
<path d="M36.0517 47.397C35.9557 38.588 29.9769 35.7855 27.3379 34.9338C26.3528 34.6158 24.9523 33.5953 24.3562 33.1106L19.2629 47.397H36.0517Z" fill="white"/>
<path fill-rule="evenodd" clip-rule="evenodd" d="M24.1307 32.305L24.6612 32.7365C24.9474 32.9691 25.4327 33.335 25.9644 33.6802C26.5041 34.0304 27.0569 34.336 27.4864 34.4747C28.8473 34.9138 31.0842 35.86 32.9968 37.847C34.9199 39.8453 36.4855 42.8665 36.5348 47.3917L36.5401 47.8794H18.5782L24.1307 32.305ZM24.5879 33.899L19.9477 46.9146H35.5571C35.4084 42.9057 33.9829 40.264 32.3002 38.5157C30.5394 36.6862 28.4676 35.8052 27.1894 35.3928C26.6338 35.2134 25.9938 34.8499 25.438 34.4892C25.1315 34.2903 24.84 34.0852 24.5879 33.899Z" fill="#421769"/>
<path d="M27.9582 38.9916L25.8952 34.9004L18.7799 34.403V47.2179L27.9582 42.7866L24.3352 40.7881L27.9582 38.9916Z" fill="#421769"/>
<path d="M18.5383 25.206H25.0395C24.3691 27.4372 23.5502 32.3196 25.7844 34.2288C25.7844 34.2288 22.8059 39.5571 20.9946 42.9027C20.386 44.0268 20.0187 46.4332 19.5045 47.397C18.7799 47.397 18.5383 47.397 18.5383 47.397V42.9027V25.206Z" fill="#FDBF87"/>
<path fill-rule="evenodd" clip-rule="evenodd" d="M24.4559 25.206C24.4559 25.4666 24.4378 25.7585 24.4083 26.0773C24.3727 26.4585 24.3203 26.8754 24.2627 27.3218C24.2562 27.3718 24.2497 27.4222 24.2431 27.473C24.1442 28.2361 24.0367 29.0665 23.9912 29.8837C23.9029 31.467 24.0325 33.1785 25.0863 34.3144C25.017 34.4699 24.9223 34.6805 24.8058 34.9347C24.5423 35.5097 24.1674 36.3077 23.7226 37.1984C22.8291 38.9881 21.6678 41.1231 20.5675 42.5865C19.945 43.4141 19.6616 44.6517 19.5244 45.6104C19.454 46.1024 19.419 46.5465 19.4013 46.8675C19.4005 46.8836 19.3996 46.8993 19.3989 46.9146H18.5383V47.8794H20.3498V47.397V47.3961V47.3908C20.3498 47.3859 20.35 47.3782 20.3501 47.3677C20.3503 47.3468 20.3508 47.3151 20.3518 47.2737C20.3538 47.1911 20.3579 47.0703 20.3661 46.9201C20.3826 46.6195 20.4154 46.2043 20.4809 45.7469C20.6154 44.8065 20.8754 43.7836 21.34 43.1657C22.4965 41.6278 23.69 39.426 24.5873 37.629C25.0379 36.7265 25.4173 35.9186 25.6842 35.3363C25.8178 35.0451 25.9232 34.81 25.9953 34.6474C26.0314 34.5661 26.0592 34.5031 26.0781 34.46C26.0875 34.4385 26.0947 34.422 26.0996 34.4109L26.107 34.3937C26.107 34.3937 26.107 34.3936 25.6636 34.2023L26.107 34.3936L26.247 34.0699L25.9807 33.8383C25.0872 33.0617 24.8811 31.6396 24.971 29.9262C25.0128 29.1283 25.1151 28.3132 25.213 27.5325C25.2176 27.4958 25.2222 27.4592 25.2268 27.4228C25.281 26.9896 25.3337 26.5633 25.3706 26.1622C25.4021 25.8239 25.4221 25.5017 25.4221 25.206H24.4559Z" fill="#421769"/>
<path d="M26.8103 20.6349V15.6784C26.8103 11.1491 23.1335 7.47739 18.5981 7.47739C14.0627 7.47739 10.386 11.1491 10.386 15.6784V20.6349C10.386 25.1643 14.0627 28.8359 18.5981 28.8359C23.1335 28.8359 26.8103 25.1643 26.8103 20.6349Z" fill="#FDBF87"/>
<path fill-rule="evenodd" clip-rule="evenodd" d="M18.5981 7.9598C14.3295 7.9598 10.869 11.4155 10.869 15.6784V20.6349C10.869 24.8979 14.3295 28.3535 18.5981 28.3535C22.8667 28.3535 26.3272 24.8979 26.3272 20.6349V15.6784C26.3272 11.4155 22.8667 7.9598 18.5981 7.9598ZM9.90289 15.6784C9.90289 10.8827 13.7959 6.99498 18.5981 6.99498C23.4003 6.99498 27.2933 10.8827 27.2933 15.6784V20.6349C27.2933 25.4307 23.4003 29.3184 18.5981 29.3184C13.7958 29.3184 9.90289 25.4307 9.90289 20.6349V15.6784Z" fill="#421769"/>
<path fill-rule="evenodd" clip-rule="evenodd" d="M20.1025 23.5056C19.9691 23.5056 19.861 23.6137 19.861 23.7469C19.861 24.5462 19.2121 25.1941 18.4118 25.1941C17.98 25.1941 17.5925 25.0058 17.3267 24.7062C17.2383 24.6065 17.0855 24.5973 16.9858 24.6856C16.8859 24.774 16.8767 24.9265 16.9651 25.0262C17.3188 25.4247 17.836 25.6765 18.4118 25.6765C19.479 25.6765 20.344 24.8126 20.344 23.7469C20.344 23.6137 20.236 23.5056 20.1025 23.5056Z" fill="#421769"/>
<path d="M12.0163 16.1608C12.0163 15.628 12.4489 15.196 12.9825 15.196H16.5161C17.0496 15.196 17.4822 15.628 17.4822 16.1608V19.591C17.4822 20.1238 17.0496 20.5558 16.5161 20.5558H12.9825C12.4489 20.5558 12.0163 20.1238 12.0163 19.591V16.1608Z" fill="#FFD433"/>
<path fill-rule="evenodd" clip-rule="evenodd" d="M16.5161 16.1608H12.9825V19.591H16.5161V16.1608ZM12.9825 15.196C12.4489 15.196 12.0163 15.628 12.0163 16.1608V19.591C12.0163 20.1238 12.4489 20.5558 12.9825 20.5558H16.5161C17.0496 20.5558 17.4822 20.1238 17.4822 19.591V16.1608C17.4822 15.628 17.0496 15.196 16.5161 15.196H12.9825Z" fill="#421769"/>
<path fill-rule="evenodd" clip-rule="evenodd" d="M19.8738 18.3583H17.4822V17.3935H19.8738V18.3583Z" fill="#421769"/>
<path d="M19.8738 16.1608C19.8738 15.628 20.3064 15.196 20.8399 15.196H24.3736C24.9072 15.196 25.3397 15.628 25.3397 16.1608V19.591C25.3397 20.1238 24.9072 20.5558 24.3736 20.5558H20.8399C20.3064 20.5558 19.8738 20.1238 19.8738 19.591V16.1608Z" fill="#FFD433"/>
<path fill-rule="evenodd" clip-rule="evenodd" d="M24.3736 16.1608H20.8399V19.591H24.3736V16.1608ZM20.8399 15.196C20.3064 15.196 19.8738 15.628 19.8738 16.1608V19.591C19.8738 20.1238 20.3064 20.5558 20.8399 20.5558H24.3736C24.9072 20.5558 25.3397 20.1238 25.3397 19.591V16.1608C25.3397 15.628 24.9072 15.196 24.3736 15.196H20.8399Z" fill="#421769"/>
<path d="M18.5556 9.5614C20.1141 13.9791 24.8018 14.7667 27.8149 14.5644C28.5306 14.5164 29.0626 13.9185 29.0963 13.2031C29.2955 8.96493 28.9273 5.27692 28.1765 4.05613C26.2113 0.860962 20.7386 -0.570556 18.6509 0.394709L18.6488 0.395625C18.5311 0.450075 18.3983 0.511481 18.3702 0.637837C18.2972 0.967089 18.4774 1.72329 18.4774 2.03553V9.08472C18.4774 9.2461 18.5019 9.4092 18.5556 9.5614Z" fill="#421769"/>
<path d="M18.3974 9.5636C16.8183 13.9851 12.0681 14.7687 9.02161 14.5637C8.30529 14.5154 7.77171 13.9178 7.73766 13.2017C7.53621 8.96411 7.90863 5.27678 8.66793 4.05614C10.6564 0.859416 16.1957 -0.571939 18.3049 0.396111L18.3102 0.39855C18.4264 0.451853 18.5567 0.51163 18.5851 0.635622C18.6603 0.963687 18.4774 1.72259 18.4774 2.03553V9.08208C18.4774 9.24519 18.4522 9.40997 18.3974 9.5636Z" fill="#421769"/>
</svg>
