<svg width="38" height="48" viewBox="0 0 38 48" fill="none" xmlns="http://www.w3.org/2000/svg">
<g clip-path="url(#clip0_20_41064)">
<path fill-rule="evenodd" clip-rule="evenodd" d="M8.67451 18.088C8.94223 18.088 9.15926 18.3051 9.15926 18.5729L9.15926 27.0912C9.15927 27.3969 9.15929 27.7518 9.11551 28.0806C9.07159 28.4106 8.97608 28.7835 8.73288 29.0793C8.46938 29.3998 8.0868 29.5662 7.61171 29.5699C7.15936 29.5735 6.61365 29.4318 5.95495 29.1491C5.70893 29.0434 5.5951 28.7583 5.70069 28.5123C5.80629 28.2662 6.09132 28.1524 6.33734 28.258C6.94282 28.5179 7.34525 28.6023 7.604 28.6003C7.84001 28.5984 7.93151 28.5273 7.98404 28.4634C8.05689 28.3748 8.1194 28.2163 8.15449 27.9527C8.18897 27.6936 8.18976 27.3993 8.18976 27.0754V18.5729C8.18976 18.3051 8.40679 18.088 8.67451 18.088ZM10.4805 18.088C10.7482 18.088 10.9652 18.3051 10.9652 18.5729V29.6683C10.9652 29.9361 10.7482 30.1532 10.4805 30.1532C10.2128 30.1532 9.99573 29.9361 9.99573 29.6683V18.5729C9.99573 18.3051 10.2128 18.088 10.4805 18.088ZM12.3467 18.088C12.6144 18.088 12.8314 18.3051 12.8314 18.5729V29.6683C12.8314 29.9361 12.6144 30.1532 12.3467 30.1532C12.0789 30.1532 11.8619 29.9361 11.8619 29.6683V18.5729C11.8619 18.3051 12.0789 18.088 12.3467 18.088ZM14.2128 18.088C14.4805 18.088 14.6976 18.3051 14.6976 18.5729V29.6683C14.6976 29.9361 14.4805 30.1532 14.2128 30.1532C13.9451 30.1532 13.7281 29.9361 13.7281 29.6683V18.5729C13.7281 18.3051 13.9451 18.088 14.2128 18.088ZM16.0188 18.088C16.2865 18.088 16.5036 18.3051 16.5036 18.5729V29.6683C16.5036 29.9361 16.2865 30.1532 16.0188 30.1532C15.7511 30.1532 15.5341 29.9361 15.5341 29.6683V18.5729C15.5341 18.3051 15.7511 18.088 16.0188 18.088Z" fill="#421769"/>
<path fill-rule="evenodd" clip-rule="evenodd" d="M20.8941 18.088C21.1618 18.088 21.3788 18.3051 21.3788 18.5729V29.6683C21.3788 29.9361 21.1618 30.1532 20.8941 30.1532C20.6264 30.1532 20.4093 29.9361 20.4093 29.6683V18.5729C20.4093 18.3051 20.6264 18.088 20.8941 18.088ZM22.7001 18.088C22.9678 18.088 23.1848 18.3051 23.1848 18.5729V29.6683C23.1848 29.9361 22.9678 30.1532 22.7001 30.1532C22.4324 30.1532 22.2153 29.9361 22.2153 29.6683V18.5729C22.2153 18.3051 22.4324 18.088 22.7001 18.088ZM24.5662 18.088C24.834 18.088 25.051 18.3051 25.051 18.5729V29.6683C25.051 29.9361 24.834 30.1532 24.5662 30.1532C24.2985 30.1532 24.0815 29.9361 24.0815 29.6683V18.5729C24.0815 18.3051 24.2985 18.088 24.5662 18.088ZM26.4324 18.088C26.7001 18.088 26.9172 18.3051 26.9172 18.5729V29.6683C26.9172 29.9361 26.7001 30.1532 26.4324 30.1532C26.1647 30.1532 25.9477 29.9361 25.9477 29.6683V18.5729C25.9477 18.3051 26.1647 18.088 26.4324 18.088ZM28.2384 18.088C28.5061 18.088 28.7231 18.3051 28.7231 18.5729V27.0754C28.7231 27.3993 28.7239 27.6936 28.7584 27.9527C28.7935 28.2163 28.856 28.3748 28.9289 28.4634C28.9814 28.5273 29.0729 28.5984 29.3089 28.6003C29.5677 28.6023 29.9701 28.5179 30.5756 28.258C30.8216 28.1524 31.1066 28.2662 31.2122 28.5123C31.3178 28.7583 31.204 29.0434 30.958 29.1491C30.2993 29.4318 29.7535 29.5735 29.3012 29.5699C28.8261 29.5662 28.4435 29.3998 28.18 29.0793C27.9368 28.7835 27.8413 28.4106 27.7974 28.0806C27.7536 27.7518 27.7536 27.3969 27.7536 27.0912L27.7536 18.5729C27.7536 18.3051 27.9707 18.088 28.2384 18.088Z" fill="#421769"/>
<path d="M10.0591 14.6231H10.3229H11.0825V18.7236H10.3229H10.0591C8.9287 18.7236 8.01233 17.8057 8.01233 16.6734C8.01233 15.541 8.9287 14.6231 10.0591 14.6231Z" fill="#FDBF87"/>
<path fill-rule="evenodd" clip-rule="evenodd" d="M10.0591 15.108C9.1971 15.108 8.49707 15.8081 8.49707 16.6734C8.49707 17.5386 9.1971 18.2388 10.0591 18.2388H10.5977V15.108H10.0591ZM7.52757 16.6734C7.52757 15.2739 8.6603 14.1383 10.0591 14.1383H11.5672V19.2085H10.0591C8.6603 19.2085 7.52757 18.0728 7.52757 16.6734Z" fill="#421769"/>
<path d="M27.276 14.6231H27.0122H26.2527V18.7236H27.0122H27.276C28.4065 18.7236 29.3228 17.8057 29.3228 16.6734C29.3228 15.541 28.4065 14.6231 27.276 14.6231Z" fill="#FDBF87"/>
<path fill-rule="evenodd" clip-rule="evenodd" d="M25.7679 14.1383H27.276C28.6749 14.1383 29.8076 15.2739 29.8076 16.6734C29.8076 18.0728 28.6749 19.2085 27.276 19.2085H25.7679V14.1383ZM26.7374 15.108V18.2388H27.276C28.1381 18.2388 28.8381 17.5386 28.8381 16.6734C28.8381 15.8081 28.1381 15.108 27.276 15.108H26.7374Z" fill="#421769"/>
<path d="M36.0077 47.397C35.912 38.588 29.9514 35.7855 27.3205 34.9338C26.3384 34.6158 24.9421 33.5953 24.3478 33.1106L19.2702 47.397H36.0077Z" fill="#421769"/>
<path fill-rule="evenodd" clip-rule="evenodd" d="M24.1214 32.3003L24.6542 32.7348C24.9394 32.9675 25.4231 33.3333 25.9531 33.6783C26.4912 34.0286 27.0419 34.334 27.4697 34.4724C28.8267 34.9117 31.0575 35.8581 32.9645 37.8457C34.8823 39.8444 36.4432 42.866 36.4924 47.3917L36.4977 47.8818H18.5834L24.1214 32.3003ZM24.5805 33.9036L19.957 46.9121H35.5113C35.3626 42.9051 33.9418 40.2646 32.2651 38.5171C30.5102 36.6882 28.4452 35.8074 27.1712 35.395C26.6169 35.2156 25.9785 34.8518 25.4243 34.4911C25.1202 34.2931 24.8309 34.0891 24.5805 33.9036Z" fill="#421769"/>
<path d="M31.1896 35.9447C29.7164 34.7653 28.2269 34.1175 27.2164 33.7688V47.397H28.2663H31.1896V35.9447Z" fill="#421769"/>
<path fill-rule="evenodd" clip-rule="evenodd" d="M26.7317 33.0887L27.3745 33.3105C28.4198 33.6711 29.9634 34.342 31.4925 35.5662L31.6743 35.7118V47.8818H26.7317V33.0887ZM27.7012 34.468V46.9121H30.7048V36.1805C29.6336 35.3559 28.5638 34.817 27.7012 34.468Z" fill="#FFD433"/>
<path d="M29.2544 46.231C29.7319 46.231 30.119 45.8177 30.119 45.3079C30.119 44.7981 29.7319 44.3848 29.2544 44.3848C28.7769 44.3848 28.3898 44.7981 28.3898 45.3079C28.3898 45.8177 28.7769 46.231 29.2544 46.231Z" fill="#FFD433"/>
<path d="M18.5478 25.206H25.0291C24.3607 27.4372 23.5443 32.3196 25.7717 34.2288C25.7717 34.2288 22.8023 39.5571 20.9966 42.9027C20.3897 44.0268 20.0236 46.4332 19.511 47.397C18.7886 47.397 18.5478 47.397 18.5478 47.397V42.9027V25.206Z" fill="#FDBF87"/>
<path fill-rule="evenodd" clip-rule="evenodd" d="M24.3967 26.0765C24.3612 26.4578 24.309 26.875 24.2515 27.3215C24.245 27.3716 24.2385 27.4221 24.232 27.4728C24.1334 28.2358 24.0262 29.0664 23.9808 29.8836C23.8928 31.4663 24.0218 33.1781 25.0723 34.3148C25.0032 34.4702 24.909 34.6804 24.7931 34.934C24.5304 35.509 24.1567 36.3069 23.7133 37.1976C22.8225 38.9873 21.6648 41.1221 20.5679 42.5853C19.9471 43.4134 19.6645 44.6514 19.5277 45.6101C19.4575 46.1023 19.4225 46.5464 19.4051 46.8675C19.4042 46.8826 19.4034 46.8975 19.4027 46.9121H18.5478V47.8818H20.3569L20.3569 47.3972L20.3569 47.397L20.3569 47.3961L20.3569 47.3908C20.357 47.3859 20.357 47.3782 20.3571 47.3677C20.3574 47.3468 20.3579 47.3151 20.3589 47.2738C20.3609 47.1912 20.3649 47.0703 20.3731 46.9202C20.3895 46.6195 20.4222 46.2045 20.4875 45.7471C20.6216 44.8067 20.8808 43.7843 21.3436 43.167C22.4967 41.6289 23.6867 39.4268 24.5812 37.6298C25.0305 36.7273 25.4088 35.9194 25.6749 35.3371C25.808 35.0458 25.9131 34.8107 25.985 34.6482C26.021 34.5669 26.0487 34.5038 26.0675 34.4608C26.0769 34.4393 26.084 34.4228 26.0889 34.4116L26.0963 34.3944C26.0964 34.3943 26.0964 34.3943 25.6513 34.2023L26.0964 34.3943L26.2365 34.0693L25.9698 33.8368C25.0799 33.0611 24.8744 31.6399 24.9639 29.9263C25.0056 29.1284 25.1076 28.3134 25.2052 27.5326C25.2098 27.496 25.2144 27.4595 25.2189 27.423C25.2731 26.9896 25.3256 26.563 25.3625 26.1616C25.3938 25.8235 25.4136 25.5016 25.4136 25.206H24.4441C24.4441 25.4664 24.4261 25.758 24.3967 26.0765Z" fill="#421769"/>
<path d="M1.20824 47.397C1.30391 38.588 7.2645 35.7855 9.89549 34.9338C10.8775 34.6158 12.2738 33.5953 12.868 33.1106L17.9458 47.397H1.20824Z" fill="#421769"/>
<path fill-rule="evenodd" clip-rule="evenodd" d="M13.0944 32.3002L18.6326 47.8818H0.718185L0.723508 47.3917C0.772661 42.866 2.33356 39.8444 4.25137 37.8457C6.15846 35.8581 8.3892 34.9117 9.74621 34.4725C10.174 34.334 10.7247 34.0286 11.2628 33.6783C11.7928 33.3333 12.2765 32.9675 12.5616 32.7349L13.0944 32.3002ZM11.7916 34.4911C11.2374 34.8518 10.599 35.2156 10.0448 35.395C8.77079 35.8074 6.70573 36.6882 4.95086 38.5171C3.27414 40.2646 1.85334 42.9051 1.70465 46.9121H17.259L12.6354 33.9036C12.385 34.0891 12.0957 34.2932 11.7916 34.4911Z" fill="#421769"/>
<path d="M6.02634 35.9447C7.49951 34.7653 8.9889 34.1175 9.99948 33.7688V47.397H8.94959H6.02634V35.9447Z" fill="#421769"/>
<path fill-rule="evenodd" clip-rule="evenodd" d="M10.4842 33.0887V47.8818H5.5416V35.7118L5.72341 35.5663C7.25251 34.342 8.79609 33.6711 9.84142 33.3105L10.4842 33.0887ZM6.5111 36.1805V46.9121H9.51474V34.468C8.65214 34.817 7.58231 35.3559 6.5111 36.1805Z" fill="#FFD433"/>
<path d="M7.96147 46.231C7.48396 46.231 7.09686 45.8177 7.09686 45.3079C7.09686 44.7981 7.48396 44.3848 7.96147 44.3848C8.43898 44.3848 8.82608 44.7981 8.82608 45.3079C8.82608 45.8177 8.43898 46.231 7.96147 46.231Z" fill="#FFD433"/>
<path d="M18.6682 25.206H12.1869C12.8551 27.4372 13.6716 32.3196 11.4443 34.2288C11.4443 34.2288 14.4137 39.5571 16.2194 42.9027C16.8262 44.0268 17.1923 46.4332 17.705 47.397C18.4274 47.397 18.6682 47.397 18.6682 47.397V42.9027V25.206Z" fill="#FDBF87"/>
<path fill-rule="evenodd" clip-rule="evenodd" d="M11.8535 26.1617C11.8903 26.5631 11.9429 26.9896 11.997 27.423C12.0016 27.4595 12.0061 27.496 12.0107 27.5326C12.1084 28.3134 12.2103 29.1284 12.252 29.9263C12.3415 31.6399 12.136 33.061 11.2461 33.8368L10.9794 34.0693L11.1195 34.3943L11.5646 34.2023C11.1195 34.3943 11.1195 34.3943 11.1195 34.3944L11.127 34.4116C11.1319 34.4228 11.139 34.4393 11.1484 34.4608C11.1672 34.5038 11.1949 34.5669 11.2309 34.6482C11.3028 34.8107 11.4079 35.0458 11.541 35.3371C11.8071 35.9194 12.1855 36.7273 12.6347 37.6298C13.5292 39.4268 14.7193 41.6289 15.8724 43.167C16.3351 43.7843 16.5943 44.8067 16.7284 45.7471C16.7937 46.2045 16.8264 46.6195 16.8428 46.9202C16.851 47.0703 16.8551 47.1912 16.8571 47.2738C16.8581 47.3151 16.8586 47.3468 16.8588 47.3677C16.8589 47.3782 16.859 47.3859 16.859 47.3908L16.859 47.3961L16.859 47.397V47.8818H18.6682V46.9121H17.8132C17.8125 46.8975 17.8117 46.8826 17.8109 46.8675C17.7934 46.5464 17.7584 46.1023 17.6882 45.6101C17.5515 44.6514 17.2689 43.4134 16.648 42.5853C15.5511 41.1221 14.3934 38.9873 13.5026 37.1976C13.0592 36.3069 12.6855 35.509 12.4228 34.934C12.3069 34.6804 12.2127 34.4702 12.1436 34.3148C13.1941 33.1781 13.3231 31.4663 13.2351 29.8836C13.1897 29.0664 13.0825 28.2358 12.984 27.4728C12.9774 27.422 12.9709 27.3716 12.9644 27.3215C12.9069 26.875 12.8547 26.4578 12.8192 26.0765C12.7898 25.7579 12.7718 25.4664 12.7718 25.206H11.8023C11.8023 25.5016 11.8222 25.8236 11.8535 26.1617Z" fill="#421769"/>
<path d="M26.7945 20.6349V15.6784C26.7945 11.1491 23.1289 7.47739 18.6074 7.47739C14.0858 7.47739 10.4203 11.1491 10.4203 15.6784V20.6349C10.4203 25.1643 14.0858 28.8359 18.6074 28.8359C23.1289 28.8359 26.7945 25.1643 26.7945 20.6349Z" fill="#FDBF87"/>
<path fill-rule="evenodd" clip-rule="evenodd" d="M9.93555 15.6784C9.93555 10.882 13.8174 6.99254 18.6074 6.99254C23.3973 6.99254 27.2792 10.882 27.2792 15.6784V20.6349C27.2792 25.4314 23.3973 29.3208 18.6074 29.3208C13.8174 29.3208 9.93555 25.4314 9.93555 20.6349V15.6784ZM18.6074 7.96224C14.3542 7.96224 10.905 11.4162 10.905 15.6784V20.6349C10.905 24.8972 14.3542 28.3511 18.6074 28.3511C22.8605 28.3511 26.3097 24.8972 26.3097 20.6349V15.6784C26.3097 11.4162 22.8605 7.96224 18.6074 7.96224Z" fill="#421769"/>
<path fill-rule="evenodd" clip-rule="evenodd" d="M17.1597 23.5044C17.2936 23.5044 17.4021 23.613 17.4021 23.7468C17.4021 24.5458 18.0486 25.1929 18.8453 25.1929C19.2751 25.1929 19.661 25.0049 19.9256 24.7056C20.0143 24.6053 20.1675 24.5959 20.2677 24.6846C20.368 24.7733 20.3774 24.9265 20.2887 25.0268C19.936 25.4257 19.4198 25.6777 18.8453 25.6777C17.7802 25.6777 16.9173 24.8129 16.9173 23.7468C16.9173 23.613 17.0258 23.5044 17.1597 23.5044Z" fill="#421769"/>
<path fill-rule="evenodd" clip-rule="evenodd" d="M16.3953 21.6878C16.3463 21.6715 16.2933 21.6715 16.2443 21.6878L15.6742 21.8782C15.5472 21.9206 15.4099 21.852 15.3675 21.725C15.3251 21.598 15.3937 21.4607 15.5207 21.4183L16.0907 21.228C16.0906 21.228 16.0907 21.228 16.0907 21.228C16.2393 21.1783 16.4002 21.1783 16.5488 21.228C16.5488 21.228 16.5488 21.228 16.5488 21.228C16.5488 21.228 16.5489 21.228 16.5489 21.228L16.9667 21.3674C17.0157 21.3838 17.0687 21.3838 17.1177 21.3674L17.5355 21.228C17.5354 21.228 17.5355 21.228 17.5355 21.228C17.5355 21.228 17.5356 21.228 17.5356 21.228C17.6842 21.1783 17.845 21.1783 17.9936 21.228C17.9936 21.228 17.9936 21.228 17.9936 21.228C17.9936 21.228 17.9937 21.228 17.9937 21.228L18.4115 21.3674C18.4605 21.3838 18.5135 21.3838 18.5625 21.3674L18.9802 21.228C18.9803 21.228 18.9803 21.228 18.9804 21.228C19.129 21.1783 19.2897 21.1783 19.4384 21.228C19.4384 21.228 19.4385 21.228 19.4385 21.228L19.8563 21.3674C19.9053 21.3838 19.9582 21.3838 20.0072 21.3674L20.425 21.228C20.4251 21.228 20.4251 21.228 20.4251 21.228C20.5738 21.1783 20.7346 21.1783 20.8833 21.228L21.4533 21.4183C21.5802 21.4607 21.6488 21.598 21.6064 21.725C21.5641 21.852 21.4268 21.9206 21.2998 21.8782L20.7297 21.6879C20.6807 21.6715 20.6277 21.6715 20.5787 21.6878L20.1609 21.8273C20.1609 21.8273 20.1608 21.8273 20.1608 21.8273C20.0121 21.877 19.8514 21.877 19.7027 21.8273C19.7027 21.8273 19.7027 21.8273 19.7026 21.8273L19.2848 21.6878C19.2359 21.6715 19.1829 21.6715 19.1339 21.6878L18.7161 21.8273C18.5674 21.877 18.4066 21.877 18.2578 21.8273L17.8401 21.6878C17.7911 21.6715 17.7381 21.6715 17.6891 21.6878L17.2713 21.8273C17.2713 21.8273 17.2714 21.8273 17.2713 21.8273C17.2713 21.8273 17.2712 21.8273 17.2712 21.8273C17.1226 21.877 16.9618 21.877 16.8132 21.8273C16.8132 21.8273 16.8132 21.8273 16.8132 21.8273C16.8132 21.8273 16.8131 21.8273 16.8131 21.8273L16.3953 21.6878Z" fill="#421769"/>
<path d="M11.5633 12.2897L10.1675 14.3424C9.96699 14.6372 9.60295 14.774 9.25828 14.6838L9.16225 14.6587C8.65078 14.5248 8.42211 13.9271 8.71336 13.4852L8.74374 13.439C8.98172 13.0781 8.85226 12.5899 8.46678 12.3946C8.01507 12.166 7.93215 11.5549 8.30651 11.2137L8.53945 11.0014C8.89437 10.6779 8.90845 10.1233 8.57038 9.78217L8.47818 9.68913C8.0838 9.29119 8.17917 8.62579 8.66938 8.35506L8.87687 8.24047C9.28604 8.0145 9.43359 7.49821 9.20579 7.08957L9.0738 6.8528C8.79071 6.34499 9.09304 5.70926 9.66508 5.6095L9.72383 5.59924C10.1274 5.52886 10.4221 5.17792 10.4221 4.76754V4.4248C10.4221 3.85701 10.9961 3.46995 11.5213 3.68365C11.9628 3.86334 12.4622 3.61807 12.5908 3.15832L12.6794 2.84172C12.8338 2.28966 13.4809 2.04904 13.9575 2.36642L13.9775 2.3797C14.3949 2.65765 14.9607 2.51144 15.1919 2.06594L15.2928 1.87134C15.5412 1.39265 16.1679 1.26689 16.5811 1.61283L16.8893 1.87085C17.2882 2.20473 17.8906 2.1009 18.1552 1.65273L18.268 1.46172C18.5332 1.01237 19.1378 0.909411 19.5364 1.24574L20.0074 1.64313C20.2663 1.8617 20.6308 1.90374 20.9326 1.74987L21.6846 1.3665C22.1319 1.13846 22.6779 1.35016 22.8553 1.82047L23.0402 2.3106C23.1998 2.73403 23.6646 2.95592 24.0936 2.81359L24.7921 2.58182C25.2053 2.44474 25.6546 2.64535 25.8292 3.04478L26.2466 4.00041C26.3312 4.19369 26.4848 4.34829 26.6773 4.43377L27.2981 4.70937C27.7523 4.911 27.9347 5.46038 27.6917 5.89434L27.6334 5.99838C27.411 6.39528 27.5427 6.89731 27.9312 7.13334L28.0952 7.23302C28.499 7.47835 28.5615 8.04015 28.2216 8.36853C27.8678 8.71025 27.9524 9.29874 28.388 9.52666L28.5218 9.59667C28.9525 9.82201 29.098 10.3685 28.8366 10.7788L28.6293 11.1042C28.4628 11.3656 28.4528 11.6974 28.6032 11.9685L28.9765 12.6413C29.1764 13.0016 29.0874 13.4538 28.7658 13.711L28.2 14.1639C27.8213 14.4668 27.2663 14.3884 26.9862 13.9922L25.7731 12.2769C25.6151 12.0535 25.3588 11.9207 25.0854 11.9207H12.2599C11.981 11.9207 11.7203 12.0589 11.5633 12.2897Z" fill="#421769"/>
<path fill-rule="evenodd" clip-rule="evenodd" d="M9.28497 14.1896L9.28474 14.1896L9.16228 14.6586L9.28497 14.1896ZM22.4017 1.99157C22.3261 1.7912 22.0942 1.70188 21.9048 1.79846L21.1528 2.18184C20.6771 2.4243 20.1028 2.35802 19.6948 2.01373C19.6948 2.01371 19.6948 2.01374 19.6948 2.01373L19.2238 1.6163M22.4017 1.99157L22.5866 2.48168L22.4017 1.99157ZM22.5866 2.48168C22.8379 3.14816 23.5699 3.49814 24.2462 3.27378L24.9447 3.04201C24.9447 3.04201 24.9447 3.042 24.9447 3.04201C25.1196 2.98399 25.3105 3.06862 25.385 3.23888C25.385 3.23884 25.385 3.23891 25.385 3.23888L25.8024 4.19451L25.8025 4.1947C25.9355 4.49874 26.1773 4.74221 26.4806 4.87691L27.1014 5.15252C27.2943 5.23811 27.3725 5.47208 27.2688 5.65734L27.2105 5.76135C27.2105 5.76137 27.2105 5.76133 27.2105 5.76135C26.8607 6.38572 27.0676 7.17585 27.6795 7.54767C27.6795 7.54769 27.6796 7.54771 27.6796 7.54773L27.8435 7.64734C27.9755 7.72753 27.9964 7.91195 27.8849 8.01972C27.2933 8.59107 27.4345 9.57494 28.1633 9.95627L28.2971 10.0262C28.4757 10.1197 28.5368 10.3472 28.4279 10.5182C28.4279 10.5182 28.4279 10.5182 28.4279 10.5182L28.2205 10.8436C27.9584 11.2551 27.9427 11.7773 28.1793 12.2037L28.5526 12.8764C28.638 13.0303 28.5998 13.223 28.4631 13.3324L27.8972 13.7852C27.7364 13.9138 27.5011 13.8807 27.3821 13.7123L26.1689 11.997C25.9202 11.6452 25.5163 11.4359 25.0854 11.4359H12.2599C11.8203 11.4359 11.4096 11.6536 11.1625 12.017C11.1625 12.017 11.1625 12.017 11.1625 12.017L9.76671 14.0697" fill="#421769"/>
<path d="M14.6342 39.799C18.198 42.8864 21.2561 41.0855 22.3397 39.799V47.8794H14.6342V39.799Z" fill="#421769"/>
</g>
<defs>
<clipPath id="clip0_20_41064">
<rect width="36.9623" height="48" fill="white" transform="translate(0.06604)"/>
</clipPath>
</defs>
</svg>
